{
	"patcher" : 	{
		"fileversion" : 1,
		"appversion" : 		{
			"major" : 8,
			"minor" : 5,
			"revision" : 6,
			"architecture" : "x64",
			"modernui" : 1
		}
,
		"classnamespace" : "box",
		"rect" : [ 0.0, -1029.0, 1920.0, 997.0 ],
		"bglocked" : 0,
		"openinpresentation" : 1,
		"default_fontsize" : 12.0,
		"default_fontface" : 0,
		"default_fontname" : "Arial",
		"gridonopen" : 1,
		"gridsize" : [ 15.0, 15.0 ],
		"gridsnaponopen" : 1,
		"objectsnaponopen" : 1,
		"statusbarvisible" : 2,
		"toolbarvisible" : 1,
		"lefttoolbarpinned" : 0,
		"toptoolbarpinned" : 0,
		"righttoolbarpinned" : 0,
		"bottomtoolbarpinned" : 0,
		"toolbars_unpinned_last_save" : 15,
		"tallnewobj" : 0,
		"boxanimatetime" : 200,
		"enablehscroll" : 1,
		"enablevscroll" : 1,
		"devicewidth" : 0.0,
		"description" : "",
		"digest" : "",
		"tags" : "",
		"style" : "",
		"subpatcher_template" : "Default Max 7",
		"assistshowspatchername" : 0,
		"boxes" : [ 			{
				"box" : 				{
					"comment" : "",
					"id" : "obj-1",
					"index" : 0,
					"maxclass" : "outlet",
					"numinlets" : 1,
					"numoutlets" : 0,
					"patching_rect" : [ 137.416764000000285, 112.0, 30.0, 30.0 ]
				}

			}
, 			{
				"box" : 				{
					"id" : "obj-10",
					"maxclass" : "live.meter~",
					"numinlets" : 1,
					"numoutlets" : 2,
					"orientation" : 1,
					"outlettype" : [ "float", "int" ],
					"patching_rect" : [ 3.416764000000285, 136.0, 132.0, 9.0 ],
					"presentation" : 1,
					"presentation_rect" : [ 7.333528000000683, 82.849782028295976, 199.0, 5.0 ]
				}

			}
, 			{
				"box" : 				{
					"comment" : "",
					"id" : "obj-7",
					"index" : 0,
					"maxclass" : "inlet",
					"numinlets" : 0,
					"numoutlets" : 1,
					"outlettype" : [ "" ],
					"patching_rect" : [ 171.416764000000285, 1.0, 30.0, 30.0 ]
				}

			}
, 			{
				"box" : 				{
					"id" : "obj-67",
					"ignoreclick" : 1,
					"keymode" : 1,
					"maxclass" : "textedit",
					"numinlets" : 1,
					"numoutlets" : 4,
					"outlettype" : [ "", "int", "", "" ],
					"parameter_enable" : 0,
					"patching_rect" : [ 171.416764000000285, 33.0, 101.0, 18.641745448116467 ],
					"presentation" : 1,
					"presentation_rect" : [ 7.333528000000683, 5.849782028295976, 197.04161799999963, 20.0 ],
					"text" : "To JackTrip-1",
					"textjustification" : 1,
					"varname" : "NTM_channel_name"
				}

			}
, 			{
				"box" : 				{
					"comment" : "",
					"id" : "obj-21",
					"index" : 0,
					"maxclass" : "inlet",
					"numinlets" : 0,
					"numoutlets" : 1,
					"outlettype" : [ "" ],
					"patching_rect" : [ 3.416764000000285, 1.0, 30.0, 30.0 ]
				}

			}
, 			{
				"box" : 				{
					"bgcolor" : [ 0.2, 0.2, 0.2, 0.0 ],
					"elementcolor" : [ 0.349019607843137, 0.349019607843137, 0.349019607843137, 0.0 ],
					"floatoutput" : 1,
					"id" : "obj-40",
					"ignoreclick" : 1,
					"knobcolor" : [ 1.0, 0.0, 0.0, 1.0 ],
					"knobshape" : 5,
					"maxclass" : "slider",
					"numinlets" : 1,
					"numoutlets" : 1,
					"outlettype" : [ "" ],
					"parameter_enable" : 0,
					"patching_rect" : [ 420.416764000000285, 97.0, 243.0, 36.0 ],
					"presentation" : 1,
					"presentation_rect" : [ 7.333528000000683, 51.849782028295976, 198.0, 29.0 ],
					"size" : 1.0,
					"thickness" : 40.0
				}

			}
, 			{
				"box" : 				{
					"id" : "obj-9",
					"maxclass" : "newobj",
					"numinlets" : 1,
					"numoutlets" : 4,
					"outlettype" : [ "", "", "", "" ],
					"patching_rect" : [ 203.416764000000285, 1.0, 56.0, 22.0 ],
					"restore" : 					{
						"NTM_channel_input" : [ 1 ],
						"NTM_channel_name" : [ "To JackTrip-1" ]
					}
,
					"text" : "autopattr",
					"varname" : "u922012346"
				}

			}
, 			{
				"box" : 				{
					"color" : [ 1.0, 0.0, 0.0, 1.0 ],
					"id" : "obj-34",
					"maxclass" : "newobj",
					"numinlets" : 0,
					"numoutlets" : 1,
					"outlettype" : [ "" ],
					"patching_rect" : [ 420.416764000000285, 73.0, 237.0, 22.0 ],
					"text" : "r #0-to-JackTrip_buffer_playback_progress"
				}

			}
, 			{
				"box" : 				{
					"id" : "obj-29",
					"maxclass" : "newobj",
					"numinlets" : 2,
					"numoutlets" : 1,
					"outlettype" : [ "signal" ],
					"patcher" : 					{
						"fileversion" : 1,
						"appversion" : 						{
							"major" : 8,
							"minor" : 5,
							"revision" : 6,
							"architecture" : "x64",
							"modernui" : 1
						}
,
						"classnamespace" : "box",
						"rect" : [ 661.0, -808.0, 252.0, 101.0 ],
						"bglocked" : 0,
						"openinpresentation" : 0,
						"default_fontsize" : 12.0,
						"default_fontface" : 0,
						"default_fontname" : "Arial",
						"gridonopen" : 1,
						"gridsize" : [ 15.0, 15.0 ],
						"gridsnaponopen" : 1,
						"objectsnaponopen" : 1,
						"statusbarvisible" : 2,
						"toolbarvisible" : 1,
						"lefttoolbarpinned" : 0,
						"toptoolbarpinned" : 0,
						"righttoolbarpinned" : 0,
						"bottomtoolbarpinned" : 0,
						"toolbars_unpinned_last_save" : 15,
						"tallnewobj" : 0,
						"boxanimatetime" : 200,
						"enablehscroll" : 1,
						"enablevscroll" : 1,
						"devicewidth" : 0.0,
						"description" : "",
						"digest" : "",
						"tags" : "",
						"style" : "",
						"subpatcher_template" : "Default Max 7",
						"assistshowspatchername" : 0,
						"boxes" : [ 							{
								"box" : 								{
									"id" : "obj-22",
									"maxclass" : "newobj",
									"numinlets" : 1,
									"numoutlets" : 1,
									"outlettype" : [ "signal" ],
									"patcher" : 									{
										"fileversion" : 1,
										"appversion" : 										{
											"major" : 8,
											"minor" : 5,
											"revision" : 6,
											"architecture" : "x64",
											"modernui" : 1
										}
,
										"classnamespace" : "box",
										"rect" : [ 583.0, -637.0, 298.0, 89.0 ],
										"bglocked" : 0,
										"openinpresentation" : 0,
										"default_fontsize" : 12.0,
										"default_fontface" : 0,
										"default_fontname" : "Arial",
										"gridonopen" : 1,
										"gridsize" : [ 15.0, 15.0 ],
										"gridsnaponopen" : 1,
										"objectsnaponopen" : 1,
										"statusbarvisible" : 2,
										"toolbarvisible" : 1,
										"lefttoolbarpinned" : 0,
										"toptoolbarpinned" : 0,
										"righttoolbarpinned" : 0,
										"bottomtoolbarpinned" : 0,
										"toolbars_unpinned_last_save" : 15,
										"tallnewobj" : 0,
										"boxanimatetime" : 200,
										"enablehscroll" : 1,
										"enablevscroll" : 1,
										"devicewidth" : 0.0,
										"description" : "",
										"digest" : "",
										"tags" : "",
										"style" : "",
										"subpatcher_template" : "Default Max 7",
										"assistshowspatchername" : 0,
										"boxes" : [ 											{
												"box" : 												{
													"id" : "obj-18",
													"maxclass" : "newobj",
													"numinlets" : 1,
													"numoutlets" : 1,
													"outlettype" : [ "signal" ],
													"patcher" : 													{
														"fileversion" : 1,
														"appversion" : 														{
															"major" : 8,
															"minor" : 5,
															"revision" : 6,
															"architecture" : "x64",
															"modernui" : 1
														}
,
														"classnamespace" : "box",
														"rect" : [ 471.0, -289.0, 394.0, 99.0 ],
														"bglocked" : 0,
														"openinpresentation" : 0,
														"default_fontsize" : 12.0,
														"default_fontface" : 0,
														"default_fontname" : "Arial",
														"gridonopen" : 1,
														"gridsize" : [ 15.0, 15.0 ],
														"gridsnaponopen" : 1,
														"objectsnaponopen" : 1,
														"statusbarvisible" : 2,
														"toolbarvisible" : 1,
														"lefttoolbarpinned" : 0,
														"toptoolbarpinned" : 0,
														"righttoolbarpinned" : 0,
														"bottomtoolbarpinned" : 0,
														"toolbars_unpinned_last_save" : 15,
														"tallnewobj" : 0,
														"boxanimatetime" : 200,
														"enablehscroll" : 1,
														"enablevscroll" : 1,
														"devicewidth" : 0.0,
														"description" : "",
														"digest" : "",
														"tags" : "",
														"style" : "",
														"subpatcher_template" : "Default Max 7",
														"assistshowspatchername" : 0,
														"boxes" : [ 															{
																"box" : 																{
																	"comment" : "",
																	"id" : "obj-16",
																	"index" : 1,
																	"maxclass" : "inlet",
																	"numinlets" : 0,
																	"numoutlets" : 1,
																	"outlettype" : [ "" ],
																	"patching_rect" : [ 103.000000000000256, 2.0, 30.0, 30.0 ],
																	"varname" : "u468001858"
																}

															}
, 															{
																"box" : 																{
																	"comment" : "",
																	"id" : "obj-17",
																	"index" : 1,
																	"maxclass" : "outlet",
																	"numinlets" : 1,
																	"numoutlets" : 0,
																	"patching_rect" : [ 2.000000000000256, 67.0, 30.0, 30.0 ],
																	"varname" : "u313001857"
																}

															}
, 															{
																"box" : 																{
																	"color" : [ 1.0, 0.0, 0.0, 1.0 ],
																	"id" : "obj-75",
																	"maxclass" : "newobj",
																	"numinlets" : 0,
																	"numoutlets" : 1,
																	"outlettype" : [ "" ],
																	"patching_rect" : [ 185.000000000000256, 10.0, 205.0, 22.0 ],
																	"text" : "r Netronome_master_transport_state"
																}

															}
, 															{
																"box" : 																{
																	"id" : "obj-7",
																	"maxclass" : "newobj",
																	"numinlets" : 2,
																	"numoutlets" : 0,
																	"patcher" : 																	{
																		"fileversion" : 1,
																		"appversion" : 																		{
																			"major" : 8,
																			"minor" : 5,
																			"revision" : 6,
																			"architecture" : "x64",
																			"modernui" : 1
																		}
,
																		"classnamespace" : "box",
																		"rect" : [ 866.0, -660.0, 320.0, 125.0 ],
																		"bglocked" : 0,
																		"openinpresentation" : 0,
																		"default_fontsize" : 12.0,
																		"default_fontface" : 0,
																		"default_fontname" : "Arial",
																		"gridonopen" : 1,
																		"gridsize" : [ 15.0, 15.0 ],
																		"gridsnaponopen" : 1,
																		"objectsnaponopen" : 1,
																		"statusbarvisible" : 2,
																		"toolbarvisible" : 1,
																		"lefttoolbarpinned" : 0,
																		"toptoolbarpinned" : 0,
																		"righttoolbarpinned" : 0,
																		"bottomtoolbarpinned" : 0,
																		"toolbars_unpinned_last_save" : 15,
																		"tallnewobj" : 0,
																		"boxanimatetime" : 200,
																		"enablehscroll" : 1,
																		"enablevscroll" : 1,
																		"devicewidth" : 0.0,
																		"description" : "",
																		"digest" : "",
																		"tags" : "",
																		"style" : "",
																		"subpatcher_template" : "Default Max 7",
																		"assistshowspatchername" : 0,
																		"boxes" : [ 																			{
																				"box" : 																				{
																					"id" : "obj-1",
																					"maxclass" : "newobj",
																					"numinlets" : 1,
																					"numoutlets" : 2,
																					"outlettype" : [ "", "clear" ],
																					"patching_rect" : [ 35.0, 34.0, 182.0, 22.0 ],
																					"text" : "t l clear"
																				}

																			}
, 																			{
																				"box" : 																				{
																					"id" : "obj-8",
																					"maxclass" : "newobj",
																					"numinlets" : 1,
																					"numoutlets" : 0,
																					"patcher" : 																					{
																						"fileversion" : 1,
																						"appversion" : 																						{
																							"major" : 8,
																							"minor" : 5,
																							"revision" : 6,
																							"architecture" : "x64",
																							"modernui" : 1
																						}
,
																						"classnamespace" : "box",
																						"rect" : [ 733.0, 407.0, 253.0, 75.0 ],
																						"bglocked" : 0,
																						"openinpresentation" : 0,
																						"default_fontsize" : 12.0,
																						"default_fontface" : 0,
																						"default_fontname" : "Arial",
																						"gridonopen" : 1,
																						"gridsize" : [ 15.0, 15.0 ],
																						"gridsnaponopen" : 1,
																						"objectsnaponopen" : 1,
																						"statusbarvisible" : 2,
																						"toolbarvisible" : 1,
																						"lefttoolbarpinned" : 0,
																						"toptoolbarpinned" : 0,
																						"righttoolbarpinned" : 0,
																						"bottomtoolbarpinned" : 0,
																						"toolbars_unpinned_last_save" : 15,
																						"tallnewobj" : 0,
																						"boxanimatetime" : 200,
																						"enablehscroll" : 1,
																						"enablevscroll" : 1,
																						"devicewidth" : 0.0,
																						"description" : "",
																						"digest" : "",
																						"tags" : "",
																						"style" : "",
																						"subpatcher_template" : "Default Max 7",
																						"assistshowspatchername" : 0,
																						"boxes" : [ 																							{
																								"box" : 																								{
																									"id" : "obj-3",
																									"maxclass" : "newobj",
																									"numinlets" : 1,
																									"numoutlets" : 1,
																									"outlettype" : [ "" ],
																									"patching_rect" : [ 34.5, 12.0, 121.0, 22.0 ],
																									"text" : "loadmess size 10000"
																								}

																							}
, 																							{
																								"box" : 																								{
																									"comment" : "",
																									"id" : "obj-1",
																									"index" : 1,
																									"maxclass" : "inlet",
																									"numinlets" : 0,
																									"numoutlets" : 1,
																									"outlettype" : [ "clear" ],
																									"patching_rect" : [ 2.5, 4.0, 30.0, 30.0 ]
																								}

																							}
, 																							{
																								"box" : 																								{
																									"id" : "obj-70",
																									"maxclass" : "newobj",
																									"numinlets" : 1,
																									"numoutlets" : 2,
																									"outlettype" : [ "float", "bang" ],
																									"patching_rect" : [ 2.5, 47.0, 163.0, 22.0 ],
																									"text" : "buffer~ #0-to-JackTrip_buffer"
																								}

																							}
 ],
																						"lines" : [ 																							{
																								"patchline" : 																								{
																									"destination" : [ "obj-70", 0 ],
																									"source" : [ "obj-1", 0 ]
																								}

																							}
, 																							{
																								"patchline" : 																								{
																									"destination" : [ "obj-70", 0 ],
																									"midpoints" : [ 44.0, 40.0, 12.0, 40.0 ],
																									"source" : [ "obj-3", 0 ]
																								}

																							}
 ]
																					}
,
																					"patching_rect" : [ 198.0, 58.0, 115.0, 22.0 ],
																					"saved_object_attributes" : 																					{
																						"description" : "",
																						"digest" : "",
																						"globalpatchername" : "",
																						"tags" : ""
																					}
,
																					"text" : "p to-JackTrip_buffer"
																				}

																			}
, 																			{
																				"box" : 																				{
																					"id" : "obj-3",
																					"maxclass" : "newobj",
																					"numinlets" : 1,
																					"numoutlets" : 1,
																					"outlettype" : [ "" ],
																					"patcher" : 																					{
																						"fileversion" : 1,
																						"appversion" : 																						{
																							"major" : 8,
																							"minor" : 5,
																							"revision" : 6,
																							"architecture" : "x64",
																							"modernui" : 1
																						}
,
																						"classnamespace" : "box",
																						"rect" : [ 844.0, -395.0, 300.0, 135.0 ],
																						"bglocked" : 0,
																						"openinpresentation" : 0,
																						"default_fontsize" : 12.0,
																						"default_fontface" : 0,
																						"default_fontname" : "Arial",
																						"gridonopen" : 1,
																						"gridsize" : [ 15.0, 15.0 ],
																						"gridsnaponopen" : 1,
																						"objectsnaponopen" : 1,
																						"statusbarvisible" : 2,
																						"toolbarvisible" : 1,
																						"lefttoolbarpinned" : 0,
																						"toptoolbarpinned" : 0,
																						"righttoolbarpinned" : 0,
																						"bottomtoolbarpinned" : 0,
																						"toolbars_unpinned_last_save" : 15,
																						"tallnewobj" : 0,
																						"boxanimatetime" : 200,
																						"enablehscroll" : 1,
																						"enablevscroll" : 1,
																						"devicewidth" : 0.0,
																						"description" : "",
																						"digest" : "",
																						"tags" : "",
																						"style" : "",
																						"subpatcher_template" : "Default Max 7",
																						"assistshowspatchername" : 0,
																						"boxes" : [ 																							{
																								"box" : 																								{
																									"comment" : "",
																									"id" : "obj-2",
																									"index" : 1,
																									"maxclass" : "inlet",
																									"numinlets" : 0,
																									"numoutlets" : 1,
																									"outlettype" : [ "" ],
																									"patching_rect" : [ 2.25, 2.000000000000057, 30.0, 30.0 ]
																								}

																							}
, 																							{
																								"box" : 																								{
																									"id" : "obj-50",
																									"maxclass" : "message",
																									"numinlets" : 2,
																									"numoutlets" : 1,
																									"outlettype" : [ "" ],
																									"patching_rect" : [ 2.25, 58.911910262958202, 29.5, 22.0 ],
																									"text" : "1"
																								}

																							}
, 																							{
																								"box" : 																								{
																									"id" : "obj-36",
																									"maxclass" : "message",
																									"numinlets" : 2,
																									"numoutlets" : 1,
																									"outlettype" : [ "" ],
																									"patching_rect" : [ 33.75, 58.911910262958202, 29.5, 22.0 ],
																									"text" : "0"
																								}

																							}
, 																							{
																								"box" : 																								{
																									"id" : "obj-24",
																									"maxclass" : "newobj",
																									"numinlets" : 3,
																									"numoutlets" : 3,
																									"outlettype" : [ "bang", "bang", "" ],
																									"patching_rect" : [ 2.25, 34.000000000000057, 82.0, 22.0 ],
																									"text" : "sel Play Stop"
																								}

																							}
, 																							{
																								"box" : 																								{
																									"id" : "obj-86",
																									"maxclass" : "newobj",
																									"numinlets" : 1,
																									"numoutlets" : 1,
																									"outlettype" : [ "" ],
																									"patching_rect" : [ 86.25, 34.000000000000057, 96.0, 22.0 ],
																									"text" : "loadmess loop 1"
																								}

																							}
, 																							{
																								"box" : 																								{
																									"comment" : "",
																									"id" : "obj-1",
																									"index" : 1,
																									"maxclass" : "outlet",
																									"numinlets" : 1,
																									"numoutlets" : 0,
																									"patching_rect" : [ 2.25, 102.0, 30.0, 30.0 ]
																								}

																							}
 ],
																						"lines" : [ 																							{
																								"patchline" : 																								{
																									"destination" : [ "obj-24", 0 ],
																									"source" : [ "obj-2", 0 ]
																								}

																							}
, 																							{
																								"patchline" : 																								{
																									"destination" : [ "obj-36", 0 ],
																									"source" : [ "obj-24", 1 ]
																								}

																							}
, 																							{
																								"patchline" : 																								{
																									"destination" : [ "obj-50", 0 ],
																									"source" : [ "obj-24", 0 ]
																								}

																							}
, 																							{
																								"patchline" : 																								{
																									"destination" : [ "obj-1", 0 ],
																									"midpoints" : [ 43.25, 90.955955131479101, 11.75, 90.955955131479101 ],
																									"source" : [ "obj-36", 0 ]
																								}

																							}
, 																							{
																								"patchline" : 																								{
																									"destination" : [ "obj-1", 0 ],
																									"midpoints" : [ 11.75, 91.955955131479101, 11.75, 91.955955131479101 ],
																									"source" : [ "obj-50", 0 ]
																								}

																							}
, 																							{
																								"patchline" : 																								{
																									"destination" : [ "obj-1", 0 ],
																									"midpoints" : [ 95.75, 90.955955131479101, 11.75, 90.955955131479101 ],
																									"source" : [ "obj-86", 0 ]
																								}

																							}
 ]
																					}
,
																					"patching_rect" : [ 35.0, 58.0, 161.0, 22.0 ],
																					"saved_object_attributes" : 																					{
																						"description" : "",
																						"digest" : "",
																						"globalpatchername" : "",
																						"tags" : ""
																					}
,
																					"text" : "p to-JackTrip_record_control"
																				}

																			}
, 																			{
																				"box" : 																				{
																					"id" : "obj-2",
																					"maxclass" : "newobj",
																					"numinlets" : 3,
																					"numoutlets" : 1,
																					"outlettype" : [ "signal" ],
																					"patching_rect" : [ 3.0, 97.0, 166.0, 22.0 ],
																					"text" : "record~ #0-to-JackTrip_buffer"
																				}

																			}
, 																			{
																				"box" : 																				{
																					"comment" : "",
																					"id" : "obj-5",
																					"index" : 2,
																					"maxclass" : "inlet",
																					"numinlets" : 0,
																					"numoutlets" : 1,
																					"outlettype" : [ "" ],
																					"patching_rect" : [ 35.0, 2.0, 30.0, 30.0 ]
																				}

																			}
, 																			{
																				"box" : 																				{
																					"comment" : "",
																					"id" : "obj-6",
																					"index" : 1,
																					"maxclass" : "inlet",
																					"numinlets" : 0,
																					"numoutlets" : 1,
																					"outlettype" : [ "" ],
																					"patching_rect" : [ 3.0, 2.0, 30.0, 30.0 ]
																				}

																			}
 ],
																		"lines" : [ 																			{
																				"patchline" : 																				{
																					"destination" : [ "obj-3", 0 ],
																					"source" : [ "obj-1", 0 ]
																				}

																			}
, 																			{
																				"patchline" : 																				{
																					"destination" : [ "obj-8", 0 ],
																					"source" : [ "obj-1", 1 ]
																				}

																			}
, 																			{
																				"patchline" : 																				{
																					"destination" : [ "obj-2", 0 ],
																					"midpoints" : [ 44.5, 90.500000000000057, 12.5, 90.500000000000057 ],
																					"source" : [ "obj-3", 0 ]
																				}

																			}
, 																			{
																				"patchline" : 																				{
																					"destination" : [ "obj-1", 0 ],
																					"source" : [ "obj-5", 0 ]
																				}

																			}
, 																			{
																				"patchline" : 																				{
																					"destination" : [ "obj-2", 0 ],
																					"source" : [ "obj-6", 0 ]
																				}

																			}
 ]
																	}
,
																	"patching_rect" : [ 103.000000000000256, 43.0, 101.0, 22.0 ],
																	"saved_object_attributes" : 																	{
																		"description" : "",
																		"digest" : "",
																		"globalpatchername" : "",
																		"tags" : ""
																	}
,
																	"text" : "p input_recording"
																}

															}
, 															{
																"box" : 																{
																	"id" : "obj-49",
																	"maxclass" : "newobj",
																	"numinlets" : 1,
																	"numoutlets" : 1,
																	"outlettype" : [ "signal" ],
																	"patcher" : 																	{
																		"fileversion" : 1,
																		"appversion" : 																		{
																			"major" : 8,
																			"minor" : 5,
																			"revision" : 6,
																			"architecture" : "x64",
																			"modernui" : 1
																		}
,
																		"classnamespace" : "box",
																		"rect" : [ 870.0, -642.0, 545.0, 223.0 ],
																		"bglocked" : 0,
																		"openinpresentation" : 0,
																		"default_fontsize" : 12.0,
																		"default_fontface" : 0,
																		"default_fontname" : "Arial",
																		"gridonopen" : 1,
																		"gridsize" : [ 15.0, 15.0 ],
																		"gridsnaponopen" : 1,
																		"objectsnaponopen" : 1,
																		"statusbarvisible" : 2,
																		"toolbarvisible" : 1,
																		"lefttoolbarpinned" : 0,
																		"toptoolbarpinned" : 0,
																		"righttoolbarpinned" : 0,
																		"bottomtoolbarpinned" : 0,
																		"toolbars_unpinned_last_save" : 15,
																		"tallnewobj" : 0,
																		"boxanimatetime" : 200,
																		"enablehscroll" : 1,
																		"enablevscroll" : 1,
																		"devicewidth" : 0.0,
																		"description" : "",
																		"digest" : "",
																		"tags" : "",
																		"style" : "",
																		"subpatcher_template" : "Default Max 7",
																		"assistshowspatchername" : 0,
																		"boxes" : [ 																			{
																				"box" : 																				{
																					"id" : "obj-39",
																					"maxclass" : "newobj",
																					"numinlets" : 1,
																					"numoutlets" : 3,
																					"outlettype" : [ "int", "signal", "bang" ],
																					"patcher" : 																					{
																						"fileversion" : 1,
																						"appversion" : 																						{
																							"major" : 8,
																							"minor" : 5,
																							"revision" : 6,
																							"architecture" : "x64",
																							"modernui" : 1
																						}
,
																						"classnamespace" : "box",
																						"rect" : [ 780.0, -843.0, 307.0, 182.0 ],
																						"bglocked" : 0,
																						"openinpresentation" : 0,
																						"default_fontsize" : 12.0,
																						"default_fontface" : 0,
																						"default_fontname" : "Arial",
																						"gridonopen" : 1,
																						"gridsize" : [ 15.0, 15.0 ],
																						"gridsnaponopen" : 1,
																						"objectsnaponopen" : 1,
																						"statusbarvisible" : 2,
																						"toolbarvisible" : 1,
																						"lefttoolbarpinned" : 0,
																						"toptoolbarpinned" : 0,
																						"righttoolbarpinned" : 0,
																						"bottomtoolbarpinned" : 0,
																						"toolbars_unpinned_last_save" : 15,
																						"tallnewobj" : 0,
																						"boxanimatetime" : 200,
																						"enablehscroll" : 1,
																						"enablevscroll" : 1,
																						"devicewidth" : 0.0,
																						"description" : "",
																						"digest" : "",
																						"tags" : "",
																						"style" : "",
																						"subpatcher_template" : "Default Max 7",
																						"assistshowspatchername" : 0,
																						"boxes" : [ 																							{
																								"box" : 																								{
																									"id" : "obj-24",
																									"maxclass" : "newobj",
																									"numinlets" : 1,
																									"numoutlets" : 2,
																									"outlettype" : [ "bang", "int" ],
																									"patching_rect" : [ 3.0, 81.0, 32.0, 22.0 ],
																									"text" : "t b 2"
																								}

																							}
, 																							{
																								"box" : 																								{
																									"id" : "obj-20",
																									"maxclass" : "newobj",
																									"numinlets" : 1,
																									"numoutlets" : 3,
																									"outlettype" : [ "bang", "float", "int" ],
																									"patching_rect" : [ 3.0, 33.0, 83.0, 22.0 ],
																									"text" : "t b f 1"
																								}

																							}
, 																							{
																								"box" : 																								{
																									"id" : "obj-18",
																									"maxclass" : "newobj",
																									"numinlets" : 1,
																									"numoutlets" : 1,
																									"outlettype" : [ "signal" ],
																									"patching_rect" : [ 48.0, 125.0, 44.0, 22.0 ],
																									"text" : "sig~ 0."
																								}

																							}
, 																							{
																								"box" : 																								{
																									"id" : "obj-17",
																									"maxclass" : "newobj",
																									"numinlets" : 2,
																									"numoutlets" : 1,
																									"outlettype" : [ "bang" ],
																									"patching_rect" : [ 3.0, 57.0, 51.0, 22.0 ],
																									"text" : "delay 0."
																								}

																							}
, 																							{
																								"box" : 																								{
																									"comment" : "",
																									"id" : "obj-35",
																									"index" : 1,
																									"maxclass" : "inlet",
																									"numinlets" : 0,
																									"numoutlets" : 1,
																									"outlettype" : [ "" ],
																									"patching_rect" : [ 3.0, 1.0, 30.0, 30.0 ]
																								}

																							}
, 																							{
																								"box" : 																								{
																									"comment" : "",
																									"id" : "obj-36",
																									"index" : 1,
																									"maxclass" : "outlet",
																									"numinlets" : 1,
																									"numoutlets" : 0,
																									"patching_rect" : [ 16.0, 149.0, 30.0, 30.0 ]
																								}

																							}
, 																							{
																								"box" : 																								{
																									"comment" : "",
																									"id" : "obj-37",
																									"index" : 3,
																									"maxclass" : "outlet",
																									"numinlets" : 1,
																									"numoutlets" : 0,
																									"patching_rect" : [ 94.0, 149.0, 30.0, 30.0 ]
																								}

																							}
, 																							{
																								"box" : 																								{
																									"comment" : "",
																									"id" : "obj-38",
																									"index" : 2,
																									"maxclass" : "outlet",
																									"numinlets" : 1,
																									"numoutlets" : 0,
																									"patching_rect" : [ 48.0, 149.0, 30.0, 30.0 ]
																								}

																							}
 ],
																						"lines" : [ 																							{
																								"patchline" : 																								{
																									"destination" : [ "obj-24", 0 ],
																									"source" : [ "obj-17", 0 ]
																								}

																							}
, 																							{
																								"patchline" : 																								{
																									"destination" : [ "obj-38", 0 ],
																									"source" : [ "obj-18", 0 ]
																								}

																							}
, 																							{
																								"patchline" : 																								{
																									"destination" : [ "obj-17", 1 ],
																									"source" : [ "obj-20", 1 ]
																								}

																							}
, 																							{
																								"patchline" : 																								{
																									"destination" : [ "obj-17", 0 ],
																									"source" : [ "obj-20", 0 ]
																								}

																							}
, 																							{
																								"patchline" : 																								{
																									"destination" : [ "obj-36", 0 ],
																									"midpoints" : [ 76.5, 109.0, 25.5, 109.0 ],
																									"source" : [ "obj-20", 2 ]
																								}

																							}
, 																							{
																								"patchline" : 																								{
																									"destination" : [ "obj-36", 0 ],
																									"source" : [ "obj-24", 1 ]
																								}

																							}
, 																							{
																								"patchline" : 																								{
																									"destination" : [ "obj-37", 0 ],
																									"midpoints" : [ 12.5, 118.0, 103.5, 118.0 ],
																									"source" : [ "obj-24", 0 ]
																								}

																							}
, 																							{
																								"patchline" : 																								{
																									"destination" : [ "obj-20", 0 ],
																									"source" : [ "obj-35", 0 ]
																								}

																							}
 ]
																					}
,
																					"patching_rect" : [ 3.0, 81.999992737029118, 127.0, 22.0 ],
																					"saved_object_attributes" : 																					{
																						"description" : "",
																						"digest" : "",
																						"globalpatchername" : "",
																						"tags" : ""
																					}
,
																					"text" : "p quantization_silence"
																				}

																			}
, 																			{
																				"box" : 																				{
																					"id" : "obj-23",
																					"maxclass" : "newobj",
																					"numinlets" : 3,
																					"numoutlets" : 1,
																					"outlettype" : [ "signal" ],
																					"patching_rect" : [ 3.0, 167.0, 127.0, 22.0 ],
																					"text" : "selector~ 2"
																				}

																			}
, 																			{
																				"box" : 																				{
																					"fontface" : 0,
																					"fontname" : "Arial",
																					"fontsize" : 12.0,
																					"id" : "obj-2",
																					"maxclass" : "number~",
																					"mode" : 2,
																					"numinlets" : 2,
																					"numoutlets" : 2,
																					"outlettype" : [ "signal", "float" ],
																					"patching_rect" : [ 261.0, 167.0, 56.0, 22.0 ],
																					"sig" : 0.0
																				}

																			}
, 																			{
																				"box" : 																				{
																					"color" : [ 0.0, 1.0, 0.0, 1.0 ],
																					"id" : "obj-78",
																					"maxclass" : "newobj",
																					"numinlets" : 1,
																					"numoutlets" : 0,
																					"patching_rect" : [ 298.0, 194.823821000000009, 239.0, 22.0 ],
																					"text" : "s #0-to-JackTrip_buffer_playback_progress"
																				}

																			}
, 																			{
																				"box" : 																				{
																					"id" : "obj-22",
																					"maxclass" : "newobj",
																					"numinlets" : 1,
																					"numoutlets" : 1,
																					"outlettype" : [ "" ],
																					"patching_rect" : [ 225.0, 105.999992737029118, 96.0, 22.0 ],
																					"text" : "loadmess loop 1"
																				}

																			}
, 																			{
																				"box" : 																				{
																					"id" : "obj-73",
																					"maxclass" : "newobj",
																					"numinlets" : 3,
																					"numoutlets" : 2,
																					"outlettype" : [ "signal", "signal" ],
																					"patching_rect" : [ 111.0, 143.176178999999991, 169.0, 22.0 ],
																					"text" : "groove~ #0-to-JackTrip_buffer"
																				}

																			}
, 																			{
																				"box" : 																				{
																					"id" : "obj-21",
																					"maxclass" : "newobj",
																					"numinlets" : 2,
																					"numoutlets" : 1,
																					"outlettype" : [ "signal" ],
																					"patcher" : 																					{
																						"fileversion" : 1,
																						"appversion" : 																						{
																							"major" : 8,
																							"minor" : 5,
																							"revision" : 6,
																							"architecture" : "x64",
																							"modernui" : 1
																						}
,
																						"classnamespace" : "box",
																						"rect" : [ 846.0, -460.0, 282.0, 140.0 ],
																						"bglocked" : 0,
																						"openinpresentation" : 0,
																						"default_fontsize" : 12.0,
																						"default_fontface" : 0,
																						"default_fontname" : "Arial",
																						"gridonopen" : 1,
																						"gridsize" : [ 15.0, 15.0 ],
																						"gridsnaponopen" : 1,
																						"objectsnaponopen" : 1,
																						"statusbarvisible" : 2,
																						"toolbarvisible" : 1,
																						"lefttoolbarpinned" : 0,
																						"toptoolbarpinned" : 0,
																						"righttoolbarpinned" : 0,
																						"bottomtoolbarpinned" : 0,
																						"toolbars_unpinned_last_save" : 15,
																						"tallnewobj" : 0,
																						"boxanimatetime" : 200,
																						"enablehscroll" : 1,
																						"enablevscroll" : 1,
																						"devicewidth" : 0.0,
																						"description" : "",
																						"digest" : "",
																						"tags" : "",
																						"style" : "",
																						"subpatcher_template" : "Default Max 7",
																						"assistshowspatchername" : 0,
																						"boxes" : [ 																							{
																								"box" : 																								{
																									"id" : "obj-18",
																									"maxclass" : "message",
																									"numinlets" : 2,
																									"numoutlets" : 1,
																									"outlettype" : [ "" ],
																									"patching_rect" : [ 48.000000500000056, 34.999999999999943, 29.5, 22.0 ],
																									"text" : "0"
																								}

																							}
, 																							{
																								"box" : 																								{
																									"comment" : "",
																									"id" : "obj-17",
																									"index" : 1,
																									"maxclass" : "inlet",
																									"numinlets" : 0,
																									"numoutlets" : 1,
																									"outlettype" : [ "bang" ],
																									"patching_rect" : [ 2.0, 2.999999999999972, 30.0, 30.0 ]
																								}

																							}
, 																							{
																								"box" : 																								{
																									"comment" : "",
																									"id" : "obj-19",
																									"index" : 2,
																									"maxclass" : "inlet",
																									"numinlets" : 0,
																									"numoutlets" : 1,
																									"outlettype" : [ "bang" ],
																									"patching_rect" : [ 48.000000500000056, 2.999999999999972, 30.0, 30.0 ]
																								}

																							}
, 																							{
																								"box" : 																								{
																									"comment" : "",
																									"id" : "obj-20",
																									"index" : 1,
																									"maxclass" : "outlet",
																									"numinlets" : 1,
																									"numoutlets" : 0,
																									"patching_rect" : [ 2.0, 105.999993262970861, 30.0, 30.0 ]
																								}

																							}
, 																							{
																								"box" : 																								{
																									"id" : "obj-58",
																									"maxclass" : "newobj",
																									"numinlets" : 1,
																									"numoutlets" : 1,
																									"outlettype" : [ "signal" ],
																									"patching_rect" : [ 17.0, 69.999999999999943, 31.0, 22.0 ],
																									"text" : "sig~"
																								}

																							}
, 																							{
																								"box" : 																								{
																									"id" : "obj-57",
																									"maxclass" : "newobj",
																									"numinlets" : 1,
																									"numoutlets" : 2,
																									"outlettype" : [ "float", "int" ],
																									"patching_rect" : [ 2.0, 34.999999999999943, 34.0, 22.0 ],
																									"text" : "t f 1"
																								}

																							}
 ],
																						"lines" : [ 																							{
																								"patchline" : 																								{
																									"destination" : [ "obj-57", 0 ],
																									"source" : [ "obj-17", 0 ]
																								}

																							}
, 																							{
																								"patchline" : 																								{
																									"destination" : [ "obj-20", 0 ],
																									"midpoints" : [ 57.500000500000056, 97.999996631485402, 11.5, 97.999996631485402 ],
																									"order" : 1,
																									"source" : [ "obj-18", 0 ]
																								}

																							}
, 																							{
																								"patchline" : 																								{
																									"destination" : [ "obj-58", 0 ],
																									"midpoints" : [ 57.500000500000056, 62.999999999999943, 26.5, 62.999999999999943 ],
																									"order" : 0,
																									"source" : [ "obj-18", 0 ]
																								}

																							}
, 																							{
																								"patchline" : 																								{
																									"destination" : [ "obj-18", 0 ],
																									"source" : [ "obj-19", 0 ]
																								}

																							}
, 																							{
																								"patchline" : 																								{
																									"destination" : [ "obj-20", 0 ],
																									"source" : [ "obj-57", 0 ]
																								}

																							}
, 																							{
																								"patchline" : 																								{
																									"destination" : [ "obj-58", 0 ],
																									"source" : [ "obj-57", 1 ]
																								}

																							}
, 																							{
																								"patchline" : 																								{
																									"destination" : [ "obj-20", 0 ],
																									"midpoints" : [ 26.5, 98.499996631485402, 11.5, 98.499996631485402 ],
																									"source" : [ "obj-58", 0 ]
																								}

																							}
 ]
																					}
,
																					"patching_rect" : [ 111.0, 105.999992737029118, 112.0, 22.0 ],
																					"saved_object_attributes" : 																					{
																						"description" : "",
																						"digest" : "",
																						"globalpatchername" : "",
																						"tags" : ""
																					}
,
																					"text" : "p playback_control"
																				}

																			}
, 																			{
																				"box" : 																				{
																					"id" : "obj-9",
																					"maxclass" : "newobj",
																					"numinlets" : 1,
																					"numoutlets" : 1,
																					"outlettype" : [ "" ],
																					"patcher" : 																					{
																						"fileversion" : 1,
																						"appversion" : 																						{
																							"major" : 8,
																							"minor" : 5,
																							"revision" : 6,
																							"architecture" : "x64",
																							"modernui" : 1
																						}
,
																						"classnamespace" : "box",
																						"rect" : [ 1287.0, -556.0, 345.0, 141.0 ],
																						"bglocked" : 0,
																						"openinpresentation" : 0,
																						"default_fontsize" : 12.0,
																						"default_fontface" : 0,
																						"default_fontname" : "Arial",
																						"gridonopen" : 1,
																						"gridsize" : [ 15.0, 15.0 ],
																						"gridsnaponopen" : 1,
																						"objectsnaponopen" : 1,
																						"statusbarvisible" : 2,
																						"toolbarvisible" : 1,
																						"lefttoolbarpinned" : 0,
																						"toptoolbarpinned" : 0,
																						"righttoolbarpinned" : 0,
																						"bottomtoolbarpinned" : 0,
																						"toolbars_unpinned_last_save" : 15,
																						"tallnewobj" : 0,
																						"boxanimatetime" : 200,
																						"enablehscroll" : 1,
																						"enablevscroll" : 1,
																						"devicewidth" : 0.0,
																						"description" : "",
																						"digest" : "",
																						"tags" : "",
																						"style" : "",
																						"subpatcher_template" : "Default Max 7",
																						"assistshowspatchername" : 0,
																						"boxes" : [ 																							{
																								"box" : 																								{
																									"id" : "obj-10",
																									"maxclass" : "newobj",
																									"numinlets" : 2,
																									"numoutlets" : 2,
																									"outlettype" : [ "", "" ],
																									"patching_rect" : [ 34.5, 82.00000047408372, 55.0, 22.0 ],
																									"text" : "zl slice 1"
																								}

																							}
, 																							{
																								"box" : 																								{
																									"id" : "obj-3",
																									"maxclass" : "message",
																									"numinlets" : 2,
																									"numoutlets" : 1,
																									"outlettype" : [ "" ],
																									"patching_rect" : [ 2.0, 34.00000047408372, 338.0, 22.0 ],
																									"text" : "get Netronome_data::Master::latency::adjusted_beat_duration"
																								}

																							}
, 																							{
																								"box" : 																								{
																									"color" : [ 1.0, 0.537254901960784, 0.0, 1.0 ],
																									"id" : "obj-11",
																									"maxclass" : "newobj",
																									"numinlets" : 2,
																									"numoutlets" : 4,
																									"outlettype" : [ "dictionary", "", "", "" ],
																									"patching_rect" : [ 2.0, 58.00000047408372, 120.0, 22.0 ],
																									"saved_object_attributes" : 																									{
																										"embed" : 0,
																										"parameter_enable" : 0,
																										"parameter_mappable" : 0
																									}
,
																									"text" : "dict Netronome_data"
																								}

																							}
, 																							{
																								"box" : 																								{
																									"comment" : "",
																									"id" : "obj-6",
																									"index" : 1,
																									"maxclass" : "inlet",
																									"numinlets" : 0,
																									"numoutlets" : 1,
																									"outlettype" : [ "bang" ],
																									"patching_rect" : [ 1.999999666666668, 2.00000047408372, 30.0, 30.0 ]
																								}

																							}
, 																							{
																								"box" : 																								{
																									"comment" : "",
																									"id" : "obj-7",
																									"index" : 1,
																									"maxclass" : "outlet",
																									"numinlets" : 1,
																									"numoutlets" : 0,
																									"patching_rect" : [ 70.5, 106.00000047408372, 30.0, 30.0 ]
																								}

																							}
 ],
																						"lines" : [ 																							{
																								"patchline" : 																								{
																									"destination" : [ "obj-7", 0 ],
																									"source" : [ "obj-10", 1 ]
																								}

																							}
, 																							{
																								"patchline" : 																								{
																									"destination" : [ "obj-10", 0 ],
																									"source" : [ "obj-11", 1 ]
																								}

																							}
, 																							{
																								"patchline" : 																								{
																									"destination" : [ "obj-11", 0 ],
																									"source" : [ "obj-3", 0 ]
																								}

																							}
, 																							{
																								"patchline" : 																								{
																									"destination" : [ "obj-3", 0 ],
																									"source" : [ "obj-6", 0 ]
																								}

																							}
 ]
																					}
,
																					"patching_rect" : [ 3.0, 57.999992737029118, 167.0, 22.0 ],
																					"saved_object_attributes" : 																					{
																						"description" : "",
																						"digest" : "",
																						"globalpatchername" : "",
																						"tags" : ""
																					}
,
																					"text" : "p get_adjusted_beat_duration"
																				}

																			}
, 																			{
																				"box" : 																				{
																					"comment" : "",
																					"id" : "obj-47",
																					"index" : 1,
																					"maxclass" : "inlet",
																					"numinlets" : 0,
																					"numoutlets" : 1,
																					"outlettype" : [ "" ],
																					"patching_rect" : [ 3.0, 1.999992737029118, 30.0, 30.0 ],
																					"varname" : "u883002072"
																				}

																			}
, 																			{
																				"box" : 																				{
																					"comment" : "",
																					"id" : "obj-48",
																					"index" : 1,
																					"maxclass" : "outlet",
																					"numinlets" : 1,
																					"numoutlets" : 0,
																					"patching_rect" : [ 3.0, 191.0, 30.0, 30.0 ],
																					"varname" : "u068002071"
																				}

																			}
, 																			{
																				"box" : 																				{
																					"id" : "obj-80",
																					"maxclass" : "newobj",
																					"numinlets" : 3,
																					"numoutlets" : 3,
																					"outlettype" : [ "bang", "bang", "" ],
																					"patching_rect" : [ 3.0, 33.999992737029118, 421.0, 22.0 ],
																					"text" : "sel Play Stop"
																				}

																			}
 ],
																		"lines" : [ 																			{
																				"patchline" : 																				{
																					"destination" : [ "obj-78", 0 ],
																					"source" : [ "obj-2", 1 ]
																				}

																			}
, 																			{
																				"patchline" : 																				{
																					"destination" : [ "obj-73", 0 ],
																					"source" : [ "obj-21", 0 ]
																				}

																			}
, 																			{
																				"patchline" : 																				{
																					"destination" : [ "obj-73", 0 ],
																					"midpoints" : [ 234.5, 134.088085868514554, 120.5, 134.088085868514554 ],
																					"source" : [ "obj-22", 0 ]
																				}

																			}
, 																			{
																				"patchline" : 																				{
																					"destination" : [ "obj-48", 0 ],
																					"source" : [ "obj-23", 0 ]
																				}

																			}
, 																			{
																				"patchline" : 																				{
																					"destination" : [ "obj-21", 0 ],
																					"source" : [ "obj-39", 2 ]
																				}

																			}
, 																			{
																				"patchline" : 																				{
																					"destination" : [ "obj-23", 1 ],
																					"source" : [ "obj-39", 1 ]
																				}

																			}
, 																			{
																				"patchline" : 																				{
																					"destination" : [ "obj-23", 0 ],
																					"source" : [ "obj-39", 0 ]
																				}

																			}
, 																			{
																				"patchline" : 																				{
																					"destination" : [ "obj-80", 0 ],
																					"source" : [ "obj-47", 0 ]
																				}

																			}
, 																			{
																				"patchline" : 																				{
																					"destination" : [ "obj-2", 0 ],
																					"source" : [ "obj-73", 1 ]
																				}

																			}
, 																			{
																				"patchline" : 																				{
																					"destination" : [ "obj-23", 2 ],
																					"source" : [ "obj-73", 0 ]
																				}

																			}
, 																			{
																				"patchline" : 																				{
																					"destination" : [ "obj-21", 1 ],
																					"source" : [ "obj-80", 1 ]
																				}

																			}
, 																			{
																				"patchline" : 																				{
																					"destination" : [ "obj-9", 0 ],
																					"source" : [ "obj-80", 0 ]
																				}

																			}
, 																			{
																				"patchline" : 																				{
																					"destination" : [ "obj-39", 0 ],
																					"source" : [ "obj-9", 0 ]
																				}

																			}
 ]
																	}
,
																	"patching_rect" : [ 2.000000000000256, 43.0, 99.0, 22.0 ],
																	"saved_object_attributes" : 																	{
																		"description" : "",
																		"digest" : "",
																		"globalpatchername" : "",
																		"tags" : ""
																	}
,
																	"text" : "p input_playback"
																}

															}
 ],
														"lines" : [ 															{
																"patchline" : 																{
																	"destination" : [ "obj-7", 0 ],
																	"source" : [ "obj-16", 0 ]
																}

															}
, 															{
																"patchline" : 																{
																	"destination" : [ "obj-17", 0 ],
																	"source" : [ "obj-49", 0 ]
																}

															}
, 															{
																"patchline" : 																{
																	"destination" : [ "obj-49", 0 ],
																	"midpoints" : [ 194.500000000000256, 36.0, 11.500000000000256, 36.0 ],
																	"order" : 1,
																	"source" : [ "obj-75", 0 ]
																}

															}
, 															{
																"patchline" : 																{
																	"destination" : [ "obj-7", 1 ],
																	"order" : 0,
																	"source" : [ "obj-75", 0 ]
																}

															}
 ]
													}
,
													"patching_rect" : [ 2.0, 33.0, 93.0, 22.0 ],
													"saved_object_attributes" : 													{
														"description" : "",
														"digest" : "",
														"globalpatchername" : "",
														"tags" : ""
													}
,
													"text" : "p handle_timing"
												}

											}
, 											{
												"box" : 												{
													"comment" : "",
													"id" : "obj-19",
													"index" : 1,
													"maxclass" : "inlet",
													"numinlets" : 0,
													"numoutlets" : 1,
													"outlettype" : [ "" ],
													"patching_rect" : [ 2.0, 1.0, 30.0, 30.0 ]
												}

											}
, 											{
												"box" : 												{
													"comment" : "",
													"id" : "obj-20",
													"index" : 1,
													"maxclass" : "outlet",
													"numinlets" : 1,
													"numoutlets" : 0,
													"patching_rect" : [ 2.0, 57.0, 30.0, 30.0 ]
												}

											}
 ],
										"lines" : [ 											{
												"patchline" : 												{
													"destination" : [ "obj-20", 0 ],
													"source" : [ "obj-18", 0 ]
												}

											}
, 											{
												"patchline" : 												{
													"destination" : [ "obj-18", 0 ],
													"source" : [ "obj-19", 0 ]
												}

											}
 ]
									}
,
									"patching_rect" : [ 2.000014999999735, 32.99999994811651, 101.0, 22.0 ],
									"saved_object_attributes" : 									{
										"description" : "",
										"digest" : "",
										"globalpatchername" : "",
										"tags" : ""
									}
,
									"text" : "p input_to_output"
								}

							}
, 							{
								"box" : 								{
									"id" : "obj-133",
									"maxclass" : "newobj",
									"numinlets" : 2,
									"numoutlets" : 0,
									"patcher" : 									{
										"fileversion" : 1,
										"appversion" : 										{
											"major" : 8,
											"minor" : 5,
											"revision" : 6,
											"architecture" : "x64",
											"modernui" : 1
										}
,
										"classnamespace" : "box",
										"rect" : [ 1685.0, 166.0, 227.0, 102.0 ],
										"bglocked" : 0,
										"openinpresentation" : 0,
										"default_fontsize" : 12.0,
										"default_fontface" : 0,
										"default_fontname" : "Arial",
										"gridonopen" : 1,
										"gridsize" : [ 15.0, 15.0 ],
										"gridsnaponopen" : 1,
										"objectsnaponopen" : 1,
										"statusbarvisible" : 2,
										"toolbarvisible" : 1,
										"lefttoolbarpinned" : 0,
										"toptoolbarpinned" : 0,
										"righttoolbarpinned" : 0,
										"bottomtoolbarpinned" : 0,
										"toolbars_unpinned_last_save" : 15,
										"tallnewobj" : 0,
										"boxanimatetime" : 200,
										"enablehscroll" : 1,
										"enablevscroll" : 1,
										"devicewidth" : 0.0,
										"description" : "",
										"digest" : "",
										"tags" : "",
										"style" : "",
										"subpatcher_template" : "Default Max 7",
										"assistshowspatchername" : 0,
										"boxes" : [ 											{
												"box" : 												{
													"comment" : "",
													"id" : "obj-2",
													"index" : 1,
													"maxclass" : "inlet",
													"numinlets" : 0,
													"numoutlets" : 1,
													"outlettype" : [ "signal" ],
													"patching_rect" : [ 1.0, 1.0, 30.0, 30.0 ]
												}

											}
, 											{
												"box" : 												{
													"id" : "obj-61",
													"maxclass" : "newobj",
													"numinlets" : 2,
													"numoutlets" : 0,
													"patching_rect" : [ 1.0, 76.802880963016719, 35.0, 22.0 ],
													"text" : "dac~"
												}

											}
, 											{
												"box" : 												{
													"comment" : "",
													"id" : "obj-130",
													"index" : 2,
													"maxclass" : "inlet",
													"numinlets" : 0,
													"numoutlets" : 1,
													"outlettype" : [ "int" ],
													"patching_rect" : [ 33.0, 1.0, 30.0, 30.0 ]
												}

											}
, 											{
												"box" : 												{
													"id" : "obj-5",
													"maxclass" : "newobj",
													"numinlets" : 1,
													"numoutlets" : 1,
													"outlettype" : [ "" ],
													"patching_rect" : [ 65.0, 9.0, 70.0, 22.0 ],
													"text" : "loadmess 0"
												}

											}
, 											{
												"box" : 												{
													"id" : "obj-33",
													"maxclass" : "newobj",
													"numinlets" : 1,
													"numoutlets" : 1,
													"outlettype" : [ "" ],
													"patching_rect" : [ 33.0, 43.741928351812476, 72.0, 22.0 ],
													"text" : "prepend set"
												}

											}
 ],
										"lines" : [ 											{
												"patchline" : 												{
													"destination" : [ "obj-33", 0 ],
													"source" : [ "obj-130", 0 ]
												}

											}
, 											{
												"patchline" : 												{
													"destination" : [ "obj-61", 0 ],
													"source" : [ "obj-2", 0 ]
												}

											}
, 											{
												"patchline" : 												{
													"destination" : [ "obj-61", 0 ],
													"midpoints" : [ 42.5, 71.772404657414597, 10.5, 71.772404657414597 ],
													"source" : [ "obj-33", 0 ]
												}

											}
, 											{
												"patchline" : 												{
													"destination" : [ "obj-33", 0 ],
													"midpoints" : [ 74.5, 36.999997948116402, 42.5, 36.999997948116402 ],
													"source" : [ "obj-5", 0 ]
												}

											}
 ]
									}
,
									"patching_rect" : [ 66.000014999999735, 77.000002948116503, 58.0, 22.0 ],
									"saved_object_attributes" : 									{
										"description" : "",
										"digest" : "",
										"globalpatchername" : "",
										"tags" : ""
									}
,
									"text" : "p output"
								}

							}
, 							{
								"box" : 								{
									"comment" : "",
									"id" : "obj-21",
									"index" : 1,
									"maxclass" : "inlet",
									"numinlets" : 0,
									"numoutlets" : 1,
									"outlettype" : [ "" ],
									"patching_rect" : [ 2.000014999999735, 0.99999994811651, 30.0, 30.0 ]
								}

							}
, 							{
								"box" : 								{
									"comment" : "",
									"id" : "obj-24",
									"index" : 2,
									"maxclass" : "inlet",
									"numinlets" : 0,
									"numoutlets" : 1,
									"outlettype" : [ "int" ],
									"patching_rect" : [ 105.000014999999735, 0.99999994811651, 30.0, 30.0 ]
								}

							}
, 							{
								"box" : 								{
									"comment" : "",
									"id" : "obj-28",
									"index" : 1,
									"maxclass" : "outlet",
									"numinlets" : 1,
									"numoutlets" : 0,
									"patching_rect" : [ 2.000014999999735, 69.000002948116503, 30.0, 30.0 ]
								}

							}
 ],
						"lines" : [ 							{
								"patchline" : 								{
									"destination" : [ "obj-22", 0 ],
									"source" : [ "obj-21", 0 ]
								}

							}
, 							{
								"patchline" : 								{
									"destination" : [ "obj-133", 0 ],
									"midpoints" : [ 11.500014999999735, 62.000001474058251, 75.500014999999735, 62.000001474058251 ],
									"order" : 0,
									"source" : [ "obj-22", 0 ]
								}

							}
, 							{
								"patchline" : 								{
									"destination" : [ "obj-28", 0 ],
									"order" : 1,
									"source" : [ "obj-22", 0 ]
								}

							}
, 							{
								"patchline" : 								{
									"destination" : [ "obj-133", 1 ],
									"source" : [ "obj-24", 0 ]
								}

							}
 ]
					}
,
					"patching_rect" : [ 3.416764000000285, 112.0, 132.0, 22.0 ],
					"saved_object_attributes" : 					{
						"description" : "",
						"digest" : "",
						"globalpatchername" : "",
						"tags" : ""
					}
,
					"text" : "p manage_io"
				}

			}
, 			{
				"box" : 				{
					"id" : "obj-141",
					"maxclass" : "newobj",
					"numinlets" : 0,
					"numoutlets" : 2,
					"outlettype" : [ "", "" ],
					"patcher" : 					{
						"fileversion" : 1,
						"appversion" : 						{
							"major" : 8,
							"minor" : 5,
							"revision" : 6,
							"architecture" : "x64",
							"modernui" : 1
						}
,
						"classnamespace" : "box",
						"rect" : [ 474.0, 189.0, 284.0, 189.0 ],
						"bglocked" : 0,
						"openinpresentation" : 0,
						"default_fontsize" : 12.0,
						"default_fontface" : 0,
						"default_fontname" : "Arial",
						"gridonopen" : 1,
						"gridsize" : [ 15.0, 15.0 ],
						"gridsnaponopen" : 1,
						"objectsnaponopen" : 1,
						"statusbarvisible" : 2,
						"toolbarvisible" : 1,
						"lefttoolbarpinned" : 0,
						"toptoolbarpinned" : 0,
						"righttoolbarpinned" : 0,
						"bottomtoolbarpinned" : 0,
						"toolbars_unpinned_last_save" : 15,
						"tallnewobj" : 0,
						"boxanimatetime" : 200,
						"enablehscroll" : 1,
						"enablevscroll" : 1,
						"devicewidth" : 0.0,
						"description" : "",
						"digest" : "",
						"tags" : "",
						"style" : "",
						"subpatcher_template" : "Default Max 7",
						"assistshowspatchername" : 0,
						"boxes" : [ 							{
								"box" : 								{
									"id" : "obj-7",
									"maxclass" : "newobj",
									"numinlets" : 2,
									"numoutlets" : 1,
									"outlettype" : [ "" ],
									"patching_rect" : [ 77.0, 118.0, 52.0, 22.0 ],
									"text" : "gate 1 1"
								}

							}
, 							{
								"box" : 								{
									"id" : "obj-8",
									"maxclass" : "message",
									"numinlets" : 2,
									"numoutlets" : 1,
									"outlettype" : [ "" ],
									"patching_rect" : [ 77.0, 89.0, 29.5, 22.0 ],
									"text" : "0"
								}

							}
, 							{
								"box" : 								{
									"id" : "obj-6",
									"maxclass" : "newobj",
									"numinlets" : 2,
									"numoutlets" : 1,
									"outlettype" : [ "" ],
									"patching_rect" : [ 4.0, 118.0, 52.0, 22.0 ],
									"text" : "gate 1 1"
								}

							}
, 							{
								"box" : 								{
									"id" : "obj-5",
									"maxclass" : "message",
									"numinlets" : 2,
									"numoutlets" : 1,
									"outlettype" : [ "" ],
									"patching_rect" : [ 4.0, 89.0, 29.5, 22.0 ],
									"text" : "0"
								}

							}
, 							{
								"box" : 								{
									"id" : "obj-4",
									"maxclass" : "newobj",
									"numinlets" : 2,
									"numoutlets" : 2,
									"outlettype" : [ "", "" ],
									"patching_rect" : [ 4.0, 65.0, 71.0, 22.0 ],
									"text" : "route init"
								}

							}
, 							{
								"box" : 								{
									"id" : "obj-1",
									"maxclass" : "newobj",
									"numinlets" : 2,
									"numoutlets" : 2,
									"outlettype" : [ "", "" ],
									"patching_rect" : [ 77.0, 65.0, 79.0, 22.0 ],
									"text" : "route init"
								}

							}
, 							{
								"box" : 								{
									"id" : "obj-118",
									"maxclass" : "newobj",
									"numinlets" : 2,
									"numoutlets" : 2,
									"outlettype" : [ "", "" ],
									"patching_rect" : [ 77.0, 41.0, 79.0, 22.0 ],
									"text" : "route outputs"
								}

							}
, 							{
								"box" : 								{
									"id" : "obj-117",
									"maxclass" : "newobj",
									"numinlets" : 2,
									"numoutlets" : 2,
									"outlettype" : [ "", "" ],
									"patching_rect" : [ 4.0, 41.0, 71.0, 22.0 ],
									"text" : "route inputs"
								}

							}
, 							{
								"box" : 								{
									"color" : [ 1.0, 0.0, 0.0, 1.0 ],
									"id" : "obj-116",
									"maxclass" : "newobj",
									"numinlets" : 0,
									"numoutlets" : 1,
									"outlettype" : [ "" ],
									"patching_rect" : [ 4.0, 3.0, 64.0, 22.0 ],
									"text" : "r #0-io_list"
								}

							}
, 							{
								"box" : 								{
									"comment" : "",
									"id" : "obj-139",
									"index" : 1,
									"maxclass" : "outlet",
									"numinlets" : 1,
									"numoutlets" : 0,
									"patching_rect" : [ 4.0, 156.0, 30.0, 30.0 ]
								}

							}
, 							{
								"box" : 								{
									"comment" : "",
									"id" : "obj-140",
									"index" : 2,
									"maxclass" : "outlet",
									"numinlets" : 1,
									"numoutlets" : 0,
									"patching_rect" : [ 77.0, 156.0, 30.0, 30.0 ]
								}

							}
 ],
						"lines" : [ 							{
								"patchline" : 								{
									"destination" : [ "obj-140", 0 ],
									"midpoints" : [ 146.5, 146.0, 86.5, 146.0 ],
									"source" : [ "obj-1", 1 ]
								}

							}
, 							{
								"patchline" : 								{
									"destination" : [ "obj-8", 0 ],
									"source" : [ "obj-1", 0 ]
								}

							}
, 							{
								"patchline" : 								{
									"destination" : [ "obj-117", 0 ],
									"order" : 1,
									"source" : [ "obj-116", 0 ]
								}

							}
, 							{
								"patchline" : 								{
									"destination" : [ "obj-118", 0 ],
									"midpoints" : [ 13.5, 32.0, 86.5, 32.0 ],
									"order" : 0,
									"source" : [ "obj-116", 0 ]
								}

							}
, 							{
								"patchline" : 								{
									"destination" : [ "obj-4", 0 ],
									"source" : [ "obj-117", 0 ]
								}

							}
, 							{
								"patchline" : 								{
									"destination" : [ "obj-1", 0 ],
									"source" : [ "obj-118", 0 ]
								}

							}
, 							{
								"patchline" : 								{
									"destination" : [ "obj-139", 0 ],
									"midpoints" : [ 65.5, 147.0, 13.5, 147.0 ],
									"source" : [ "obj-4", 1 ]
								}

							}
, 							{
								"patchline" : 								{
									"destination" : [ "obj-5", 0 ],
									"source" : [ "obj-4", 0 ]
								}

							}
, 							{
								"patchline" : 								{
									"destination" : [ "obj-6", 1 ],
									"order" : 0,
									"source" : [ "obj-5", 0 ]
								}

							}
, 							{
								"patchline" : 								{
									"destination" : [ "obj-6", 0 ],
									"order" : 1,
									"source" : [ "obj-5", 0 ]
								}

							}
, 							{
								"patchline" : 								{
									"destination" : [ "obj-139", 0 ],
									"source" : [ "obj-6", 0 ]
								}

							}
, 							{
								"patchline" : 								{
									"destination" : [ "obj-140", 0 ],
									"source" : [ "obj-7", 0 ]
								}

							}
, 							{
								"patchline" : 								{
									"destination" : [ "obj-7", 1 ],
									"order" : 0,
									"source" : [ "obj-8", 0 ]
								}

							}
, 							{
								"patchline" : 								{
									"destination" : [ "obj-7", 0 ],
									"order" : 1,
									"source" : [ "obj-8", 0 ]
								}

							}
 ]
					}
,
					"patching_rect" : [ 35.416764000000285, 49.0, 100.0, 22.0 ],
					"saved_object_attributes" : 					{
						"description" : "",
						"digest" : "",
						"globalpatchername" : "",
						"tags" : ""
					}
,
					"text" : "p init_io_umenus"
				}

			}
, 			{
				"box" : 				{
					"id" : "obj-123",
					"maxclass" : "newobj",
					"numinlets" : 0,
					"numoutlets" : 1,
					"outlettype" : [ "" ],
					"patcher" : 					{
						"fileversion" : 1,
						"appversion" : 						{
							"major" : 8,
							"minor" : 5,
							"revision" : 6,
							"architecture" : "x64",
							"modernui" : 1
						}
,
						"classnamespace" : "box",
						"rect" : [ 599.0, 167.0, 254.0, 160.0 ],
						"bglocked" : 0,
						"openinpresentation" : 0,
						"default_fontsize" : 12.0,
						"default_fontface" : 0,
						"default_fontname" : "Arial",
						"gridonopen" : 1,
						"gridsize" : [ 15.0, 15.0 ],
						"gridsnaponopen" : 1,
						"objectsnaponopen" : 1,
						"statusbarvisible" : 2,
						"toolbarvisible" : 1,
						"lefttoolbarpinned" : 0,
						"toptoolbarpinned" : 0,
						"righttoolbarpinned" : 0,
						"bottomtoolbarpinned" : 0,
						"toolbars_unpinned_last_save" : 15,
						"tallnewobj" : 0,
						"boxanimatetime" : 200,
						"enablehscroll" : 1,
						"enablevscroll" : 1,
						"devicewidth" : 0.0,
						"description" : "",
						"digest" : "",
						"tags" : "",
						"style" : "",
						"subpatcher_template" : "Default Max 7",
						"assistshowspatchername" : 0,
						"boxes" : [ 							{
								"box" : 								{
									"id" : "obj-4",
									"maxclass" : "newobj",
									"numinlets" : 1,
									"numoutlets" : 1,
									"outlettype" : [ "" ],
									"patching_rect" : [ 3.0, 51.0, 71.0, 22.0 ],
									"text" : "prepend init"
								}

							}
, 							{
								"box" : 								{
									"id" : "obj-5",
									"maxclass" : "newobj",
									"numinlets" : 2,
									"numoutlets" : 2,
									"outlettype" : [ "", "" ],
									"patching_rect" : [ 3.0, 28.0, 95.0, 22.0 ],
									"text" : "route set"
								}

							}
, 							{
								"box" : 								{
									"id" : "obj-3",
									"maxclass" : "newobj",
									"numinlets" : 1,
									"numoutlets" : 1,
									"outlettype" : [ "" ],
									"patching_rect" : [ 106.0, 51.0, 71.0, 22.0 ],
									"text" : "prepend init"
								}

							}
, 							{
								"box" : 								{
									"id" : "obj-1",
									"maxclass" : "newobj",
									"numinlets" : 2,
									"numoutlets" : 2,
									"outlettype" : [ "", "" ],
									"patching_rect" : [ 106.0, 28.0, 93.0, 22.0 ],
									"text" : "route set"
								}

							}
, 							{
								"box" : 								{
									"id" : "obj-115",
									"maxclass" : "newobj",
									"numinlets" : 1,
									"numoutlets" : 1,
									"outlettype" : [ "" ],
									"patching_rect" : [ 3.0, 88.0, 95.0, 22.0 ],
									"text" : "prepend outputs"
								}

							}
, 							{
								"box" : 								{
									"id" : "obj-113",
									"maxclass" : "newobj",
									"numinlets" : 1,
									"numoutlets" : 1,
									"outlettype" : [ "" ],
									"patching_rect" : [ 106.0, 88.0, 88.0, 22.0 ],
									"text" : "prepend inputs"
								}

							}
, 							{
								"box" : 								{
									"id" : "obj-97",
									"maxclass" : "newobj",
									"numinlets" : 2,
									"numoutlets" : 2,
									"outlettype" : [ "", "int" ],
									"patching_rect" : [ 106.0, 4.0, 93.0, 22.0 ],
									"text" : "adstatus input 1"
								}

							}
, 							{
								"box" : 								{
									"id" : "obj-92",
									"maxclass" : "newobj",
									"numinlets" : 2,
									"numoutlets" : 2,
									"outlettype" : [ "", "int" ],
									"patching_rect" : [ 3.0, 4.0, 101.0, 22.0 ],
									"text" : "adstatus output 1"
								}

							}
, 							{
								"box" : 								{
									"comment" : "",
									"id" : "obj-122",
									"index" : 1,
									"maxclass" : "outlet",
									"numinlets" : 1,
									"numoutlets" : 0,
									"patching_rect" : [ 3.0, 125.999991448116475, 30.0, 30.0 ]
								}

							}
 ],
						"lines" : [ 							{
								"patchline" : 								{
									"destination" : [ "obj-113", 0 ],
									"midpoints" : [ 189.5, 79.5, 115.5, 79.5 ],
									"source" : [ "obj-1", 1 ]
								}

							}
, 							{
								"patchline" : 								{
									"destination" : [ "obj-3", 0 ],
									"source" : [ "obj-1", 0 ]
								}

							}
, 							{
								"patchline" : 								{
									"destination" : [ "obj-122", 0 ],
									"midpoints" : [ 115.5, 119.499995724058238, 12.5, 119.499995724058238 ],
									"source" : [ "obj-113", 0 ]
								}

							}
, 							{
								"patchline" : 								{
									"destination" : [ "obj-122", 0 ],
									"source" : [ "obj-115", 0 ]
								}

							}
, 							{
								"patchline" : 								{
									"destination" : [ "obj-113", 0 ],
									"source" : [ "obj-3", 0 ]
								}

							}
, 							{
								"patchline" : 								{
									"destination" : [ "obj-115", 0 ],
									"source" : [ "obj-4", 0 ]
								}

							}
, 							{
								"patchline" : 								{
									"destination" : [ "obj-115", 0 ],
									"midpoints" : [ 88.5, 81.0, 12.5, 81.0 ],
									"source" : [ "obj-5", 1 ]
								}

							}
, 							{
								"patchline" : 								{
									"destination" : [ "obj-4", 0 ],
									"source" : [ "obj-5", 0 ]
								}

							}
, 							{
								"patchline" : 								{
									"destination" : [ "obj-5", 0 ],
									"source" : [ "obj-92", 0 ]
								}

							}
, 							{
								"patchline" : 								{
									"destination" : [ "obj-1", 0 ],
									"source" : [ "obj-97", 0 ]
								}

							}
 ]
					}
,
					"patching_rect" : [ 35.416764000000285, 1.0, 77.0, 22.0 ],
					"saved_object_attributes" : 					{
						"description" : "",
						"digest" : "",
						"globalpatchername" : "",
						"tags" : ""
					}
,
					"text" : "p init_io_lists"
				}

			}
, 			{
				"box" : 				{
					"color" : [ 0.0, 1.0, 0.0, 1.0 ],
					"id" : "obj-98",
					"maxclass" : "newobj",
					"numinlets" : 1,
					"numoutlets" : 0,
					"patching_rect" : [ 35.416764000000285, 25.0, 66.0, 22.0 ],
					"text" : "s #0-io_list"
				}

			}
, 			{
				"box" : 				{
					"id" : "obj-8",
					"items" : [ "Off", ",", 1, "Out1", ",", 2, "Out2", ",", 3, "Out3", ",", 4, "Out4" ],
					"maxclass" : "umenu",
					"numinlets" : 1,
					"numoutlets" : 3,
					"outlettype" : [ "int", "", "" ],
					"parameter_enable" : 0,
					"patching_rect" : [ 116.416764000000285, 73.0, 88.0, 22.0 ],
					"presentation" : 1,
					"presentation_rect" : [ 7.333528000000683, 27.849782028295976, 197.04161799999963, 22.0 ],
					"varname" : "NTM_channel_input"
				}

			}
, 			{
				"box" : 				{
					"id" : "obj-109",
					"maxclass" : "newobj",
					"numinlets" : 1,
					"numoutlets" : 1,
					"outlettype" : [ "" ],
					"patching_rect" : [ 206.416764000000285, 73.0, 196.0, 22.0 ],
					"text" : "loadmess set #0-to-JackTrip_buffer"
				}

			}
, 			{
				"box" : 				{
					"buffername" : "#0-to-JackTrip_buffer",
					"id" : "obj-18",
					"maxclass" : "waveform~",
					"numinlets" : 5,
					"numoutlets" : 6,
					"outlettype" : [ "float", "float", "float", "float", "list", "" ],
					"patching_rect" : [ 206.416764000000285, 97.0, 205.0, 36.0 ],
					"presentation" : 1,
					"presentation_rect" : [ 7.333528000000683, 51.849782028295976, 198.0, 29.0 ],
					"selectioncolor" : [ 0.929411764705882, 0.929411764705882, 0.352941176470588, 0.0 ]
				}

			}
, 			{
				"box" : 				{
					"angle" : 270.0,
					"bgcolor" : [ 1.0, 0.513725490196078, 0.984313725490196, 1.0 ],
					"border" : 2,
					"bordercolor" : [ 0.0, 0.0, 0.0, 1.0 ],
					"id" : "obj-170",
					"maxclass" : "panel",
					"mode" : 0,
					"numinlets" : 1,
					"numoutlets" : 0,
					"patching_rect" : [ 137.416764000000285, 1.0, 32.0, 46.000000051883717 ],
					"presentation" : 1,
					"presentation_rect" : [ 3.218932500000506, 0.849782028295976, 207.270808999999986, 94.146917286223697 ],
					"proportion" : 0.5
				}

			}
 ],
		"lines" : [ 			{
				"patchline" : 				{
					"destination" : [ "obj-18", 0 ],
					"source" : [ "obj-109", 0 ]
				}

			}
, 			{
				"patchline" : 				{
					"destination" : [ "obj-98", 0 ],
					"source" : [ "obj-123", 0 ]
				}

			}
, 			{
				"patchline" : 				{
					"destination" : [ "obj-8", 0 ],
					"source" : [ "obj-141", 1 ]
				}

			}
, 			{
				"patchline" : 				{
					"destination" : [ "obj-29", 0 ],
					"source" : [ "obj-21", 0 ]
				}

			}
, 			{
				"patchline" : 				{
					"destination" : [ "obj-10", 0 ],
					"source" : [ "obj-29", 0 ]
				}

			}
, 			{
				"patchline" : 				{
					"destination" : [ "obj-40", 0 ],
					"source" : [ "obj-34", 0 ]
				}

			}
, 			{
				"patchline" : 				{
					"destination" : [ "obj-67", 0 ],
					"source" : [ "obj-7", 0 ]
				}

			}
, 			{
				"patchline" : 				{
					"destination" : [ "obj-1", 0 ],
					"midpoints" : [ 125.916764000000285, 106.25, 146.916764000000285, 106.25 ],
					"order" : 0,
					"source" : [ "obj-8", 0 ]
				}

			}
, 			{
				"patchline" : 				{
					"destination" : [ "obj-29", 1 ],
					"order" : 1,
					"source" : [ "obj-8", 0 ]
				}

			}
 ],
		"dependency_cache" : [  ],
		"autosave" : 0
	}

}
