{
	"patcher" : 	{
		"fileversion" : 1,
		"appversion" : 		{
			"major" : 8,
			"minor" : 5,
			"revision" : 6,
			"architecture" : "x64",
			"modernui" : 1
		}
,
		"classnamespace" : "box",
		"rect" : [ 257.0, -982.0, 418.0, 104.0 ],
		"bglocked" : 0,
		"openinpresentation" : 1,
		"default_fontsize" : 12.0,
		"default_fontface" : 0,
		"default_fontname" : "Arial",
		"gridonopen" : 1,
		"gridsize" : [ 15.0, 15.0 ],
		"gridsnaponopen" : 1,
		"objectsnaponopen" : 1,
		"statusbarvisible" : 2,
		"toolbarvisible" : 1,
		"lefttoolbarpinned" : 0,
		"toptoolbarpinned" : 0,
		"righttoolbarpinned" : 0,
		"bottomtoolbarpinned" : 0,
		"toolbars_unpinned_last_save" : 15,
		"tallnewobj" : 0,
		"boxanimatetime" : 200,
		"enablehscroll" : 1,
		"enablevscroll" : 1,
		"devicewidth" : 0.0,
		"description" : "",
		"digest" : "",
		"tags" : "",
		"style" : "",
		"subpatcher_template" : "Default Max 7",
		"assistshowspatchername" : 0,
		"boxes" : [ 			{
				"box" : 				{
					"comment" : "",
					"id" : "obj-1",
					"index" : 0,
					"maxclass" : "outlet",
					"numinlets" : 1,
					"numoutlets" : 0,
					"patching_rect" : [ 202.416764000000285, 211.083157103767235, 30.0, 30.0 ]
				}

			}
, 			{
				"box" : 				{
					"id" : "obj-12",
					"maxclass" : "newobj",
					"numinlets" : 1,
					"numoutlets" : 1,
					"outlettype" : [ "signal" ],
					"patcher" : 					{
						"fileversion" : 1,
						"appversion" : 						{
							"major" : 8,
							"minor" : 5,
							"revision" : 6,
							"architecture" : "x64",
							"modernui" : 1
						}
,
						"classnamespace" : "box",
						"rect" : [ 303.0, 314.0, 391.0, 110.0 ],
						"bglocked" : 0,
						"openinpresentation" : 0,
						"default_fontsize" : 12.0,
						"default_fontface" : 0,
						"default_fontname" : "Arial",
						"gridonopen" : 1,
						"gridsize" : [ 15.0, 15.0 ],
						"gridsnaponopen" : 1,
						"objectsnaponopen" : 1,
						"statusbarvisible" : 2,
						"toolbarvisible" : 1,
						"lefttoolbarpinned" : 0,
						"toptoolbarpinned" : 0,
						"righttoolbarpinned" : 0,
						"bottomtoolbarpinned" : 0,
						"toolbars_unpinned_last_save" : 15,
						"tallnewobj" : 0,
						"boxanimatetime" : 200,
						"enablehscroll" : 1,
						"enablevscroll" : 1,
						"devicewidth" : 0.0,
						"description" : "",
						"digest" : "",
						"tags" : "",
						"style" : "",
						"subpatcher_template" : "Default Max 7",
						"assistshowspatchername" : 0,
						"boxes" : [ 							{
								"box" : 								{
									"id" : "obj-49",
									"maxclass" : "newobj",
									"numinlets" : 1,
									"numoutlets" : 1,
									"outlettype" : [ "signal" ],
									"patcher" : 									{
										"fileversion" : 1,
										"appversion" : 										{
											"major" : 8,
											"minor" : 5,
											"revision" : 6,
											"architecture" : "x64",
											"modernui" : 1
										}
,
										"classnamespace" : "box",
										"rect" : [ 92.0, 365.0, 471.0, 201.0 ],
										"bglocked" : 0,
										"openinpresentation" : 0,
										"default_fontsize" : 12.0,
										"default_fontface" : 0,
										"default_fontname" : "Arial",
										"gridonopen" : 1,
										"gridsize" : [ 15.0, 15.0 ],
										"gridsnaponopen" : 1,
										"objectsnaponopen" : 1,
										"statusbarvisible" : 2,
										"toolbarvisible" : 1,
										"lefttoolbarpinned" : 0,
										"toptoolbarpinned" : 0,
										"righttoolbarpinned" : 0,
										"bottomtoolbarpinned" : 0,
										"toolbars_unpinned_last_save" : 15,
										"tallnewobj" : 0,
										"boxanimatetime" : 200,
										"enablehscroll" : 1,
										"enablevscroll" : 1,
										"devicewidth" : 0.0,
										"description" : "",
										"digest" : "",
										"tags" : "",
										"style" : "",
										"subpatcher_template" : "Default Max 7",
										"assistshowspatchername" : 0,
										"boxes" : [ 											{
												"box" : 												{
													"id" : "obj-5",
													"maxclass" : "newobj",
													"numinlets" : 1,
													"numoutlets" : 1,
													"outlettype" : [ "float" ],
													"patcher" : 													{
														"fileversion" : 1,
														"appversion" : 														{
															"major" : 8,
															"minor" : 5,
															"revision" : 6,
															"architecture" : "x64",
															"modernui" : 1
														}
,
														"classnamespace" : "box",
														"rect" : [ 42.0, 85.0, 309.0, 213.0 ],
														"bglocked" : 0,
														"openinpresentation" : 0,
														"default_fontsize" : 12.0,
														"default_fontface" : 0,
														"default_fontname" : "Arial",
														"gridonopen" : 1,
														"gridsize" : [ 15.0, 15.0 ],
														"gridsnaponopen" : 1,
														"objectsnaponopen" : 1,
														"statusbarvisible" : 2,
														"toolbarvisible" : 1,
														"lefttoolbarpinned" : 0,
														"toptoolbarpinned" : 0,
														"righttoolbarpinned" : 0,
														"bottomtoolbarpinned" : 0,
														"toolbars_unpinned_last_save" : 15,
														"tallnewobj" : 0,
														"boxanimatetime" : 200,
														"enablehscroll" : 1,
														"enablevscroll" : 1,
														"devicewidth" : 0.0,
														"description" : "",
														"digest" : "",
														"tags" : "",
														"style" : "",
														"subpatcher_template" : "Default Max 7",
														"assistshowspatchername" : 0,
														"boxes" : [ 															{
																"box" : 																{
																	"id" : "obj-18",
																	"maxclass" : "newobj",
																	"numinlets" : 1,
																	"numoutlets" : 1,
																	"outlettype" : [ "" ],
																	"patcher" : 																	{
																		"fileversion" : 1,
																		"appversion" : 																		{
																			"major" : 8,
																			"minor" : 5,
																			"revision" : 6,
																			"architecture" : "x64",
																			"modernui" : 1
																		}
,
																		"classnamespace" : "box",
																		"rect" : [ 42.0, 85.0, 299.0, 138.0 ],
																		"bglocked" : 0,
																		"openinpresentation" : 0,
																		"default_fontsize" : 12.0,
																		"default_fontface" : 0,
																		"default_fontname" : "Arial",
																		"gridonopen" : 1,
																		"gridsize" : [ 15.0, 15.0 ],
																		"gridsnaponopen" : 1,
																		"objectsnaponopen" : 1,
																		"statusbarvisible" : 2,
																		"toolbarvisible" : 1,
																		"lefttoolbarpinned" : 0,
																		"toptoolbarpinned" : 0,
																		"righttoolbarpinned" : 0,
																		"bottomtoolbarpinned" : 0,
																		"toolbars_unpinned_last_save" : 15,
																		"tallnewobj" : 0,
																		"boxanimatetime" : 200,
																		"enablehscroll" : 1,
																		"enablevscroll" : 1,
																		"devicewidth" : 0.0,
																		"description" : "",
																		"digest" : "",
																		"tags" : "",
																		"style" : "",
																		"subpatcher_template" : "Default Max 7",
																		"assistshowspatchername" : 0,
																		"boxes" : [ 																			{
																				"box" : 																				{
																					"id" : "obj-14",
																					"maxclass" : "newobj",
																					"numinlets" : 2,
																					"numoutlets" : 2,
																					"outlettype" : [ "", "" ],
																					"patching_rect" : [ 35.666666666666657, 82.0, 55.0, 22.0 ],
																					"text" : "zl slice 1"
																				}

																			}
, 																			{
																				"box" : 																				{
																					"id" : "obj-3",
																					"maxclass" : "message",
																					"numinlets" : 2,
																					"numoutlets" : 1,
																					"outlettype" : [ "" ],
																					"patching_rect" : [ 2.0, 34.0, 241.0, 22.0 ],
																					"text" : "get Netronome_data::Master::latency::latest"
																				}

																			}
, 																			{
																				"box" : 																				{
																					"color" : [ 1.0, 0.537254901960784, 0.0, 1.0 ],
																					"id" : "obj-11",
																					"maxclass" : "newobj",
																					"numinlets" : 2,
																					"numoutlets" : 4,
																					"outlettype" : [ "dictionary", "", "", "" ],
																					"patching_rect" : [ 2.0, 58.0, 120.0, 22.0 ],
																					"saved_object_attributes" : 																					{
																						"embed" : 0,
																						"parameter_enable" : 0,
																						"parameter_mappable" : 0
																					}
,
																					"text" : "dict Netronome_data"
																				}

																			}
, 																			{
																				"box" : 																				{
																					"comment" : "",
																					"id" : "obj-15",
																					"index" : 1,
																					"maxclass" : "inlet",
																					"numinlets" : 0,
																					"numoutlets" : 1,
																					"outlettype" : [ "bang" ],
																					"patching_rect" : [ 2.0, 2.0, 30.0, 30.0 ]
																				}

																			}
, 																			{
																				"box" : 																				{
																					"comment" : "",
																					"id" : "obj-17",
																					"index" : 1,
																					"maxclass" : "outlet",
																					"numinlets" : 1,
																					"numoutlets" : 0,
																					"patching_rect" : [ 71.666663999999997, 106.0, 30.0, 30.0 ]
																				}

																			}
 ],
																		"lines" : [ 																			{
																				"patchline" : 																				{
																					"destination" : [ "obj-14", 0 ],
																					"source" : [ "obj-11", 1 ]
																				}

																			}
, 																			{
																				"patchline" : 																				{
																					"destination" : [ "obj-17", 0 ],
																					"source" : [ "obj-14", 1 ]
																				}

																			}
, 																			{
																				"patchline" : 																				{
																					"destination" : [ "obj-3", 0 ],
																					"source" : [ "obj-15", 0 ]
																				}

																			}
, 																			{
																				"patchline" : 																				{
																					"destination" : [ "obj-11", 0 ],
																					"source" : [ "obj-3", 0 ]
																				}

																			}
 ]
																	}
,
																	"patching_rect" : [ 3.0, 48.0, 115.0, 22.0 ],
																	"saved_object_attributes" : 																	{
																		"description" : "",
																		"digest" : "",
																		"globalpatchername" : "",
																		"tags" : ""
																	}
,
																	"text" : "p get_latest_latency"
																}

															}
, 															{
																"box" : 																{
																	"id" : "obj-13",
																	"maxclass" : "newobj",
																	"numinlets" : 1,
																	"numoutlets" : 1,
																	"outlettype" : [ "" ],
																	"patcher" : 																	{
																		"fileversion" : 1,
																		"appversion" : 																		{
																			"major" : 8,
																			"minor" : 5,
																			"revision" : 6,
																			"architecture" : "x64",
																			"modernui" : 1
																		}
,
																		"classnamespace" : "box",
																		"rect" : [ 42.0, 85.0, 296.0, 139.0 ],
																		"bglocked" : 0,
																		"openinpresentation" : 0,
																		"default_fontsize" : 12.0,
																		"default_fontface" : 0,
																		"default_fontname" : "Arial",
																		"gridonopen" : 1,
																		"gridsize" : [ 15.0, 15.0 ],
																		"gridsnaponopen" : 1,
																		"objectsnaponopen" : 1,
																		"statusbarvisible" : 2,
																		"toolbarvisible" : 1,
																		"lefttoolbarpinned" : 0,
																		"toptoolbarpinned" : 0,
																		"righttoolbarpinned" : 0,
																		"bottomtoolbarpinned" : 0,
																		"toolbars_unpinned_last_save" : 15,
																		"tallnewobj" : 0,
																		"boxanimatetime" : 200,
																		"enablehscroll" : 1,
																		"enablevscroll" : 1,
																		"devicewidth" : 0.0,
																		"description" : "",
																		"digest" : "",
																		"tags" : "",
																		"style" : "",
																		"subpatcher_template" : "Default Max 7",
																		"assistshowspatchername" : 0,
																		"boxes" : [ 																			{
																				"box" : 																				{
																					"id" : "obj-15",
																					"maxclass" : "newobj",
																					"numinlets" : 2,
																					"numoutlets" : 2,
																					"outlettype" : [ "", "" ],
																					"patching_rect" : [ 35.666666666666686, 82.0, 55.0, 22.0 ],
																					"text" : "zl slice 1"
																				}

																			}
, 																			{
																				"box" : 																				{
																					"id" : "obj-5",
																					"maxclass" : "message",
																					"numinlets" : 2,
																					"numoutlets" : 1,
																					"outlettype" : [ "" ],
																					"patching_rect" : [ 2.0, 34.0, 287.0, 22.0 ],
																					"text" : "get Netronome_data::Master::latency::pre-buffer::ms"
																				}

																			}
, 																			{
																				"box" : 																				{
																					"color" : [ 1.0, 0.537254901960784, 0.0, 1.0 ],
																					"id" : "obj-6",
																					"maxclass" : "newobj",
																					"numinlets" : 2,
																					"numoutlets" : 4,
																					"outlettype" : [ "dictionary", "", "", "" ],
																					"patching_rect" : [ 2.0, 58.0, 120.0, 22.0 ],
																					"saved_object_attributes" : 																					{
																						"embed" : 0,
																						"parameter_enable" : 0,
																						"parameter_mappable" : 0
																					}
,
																					"text" : "dict Netronome_data"
																				}

																			}
, 																			{
																				"box" : 																				{
																					"comment" : "",
																					"id" : "obj-10",
																					"index" : 1,
																					"maxclass" : "inlet",
																					"numinlets" : 0,
																					"numoutlets" : 1,
																					"outlettype" : [ "bang" ],
																					"patching_rect" : [ 2.0, 2.0, 30.0, 30.0 ]
																				}

																			}
, 																			{
																				"box" : 																				{
																					"comment" : "",
																					"id" : "obj-12",
																					"index" : 1,
																					"maxclass" : "outlet",
																					"numinlets" : 1,
																					"numoutlets" : 0,
																					"patching_rect" : [ 71.666655999999989, 106.0, 30.0, 30.0 ]
																				}

																			}
 ],
																		"lines" : [ 																			{
																				"patchline" : 																				{
																					"destination" : [ "obj-5", 0 ],
																					"source" : [ "obj-10", 0 ]
																				}

																			}
, 																			{
																				"patchline" : 																				{
																					"destination" : [ "obj-12", 0 ],
																					"source" : [ "obj-15", 1 ]
																				}

																			}
, 																			{
																				"patchline" : 																				{
																					"destination" : [ "obj-6", 0 ],
																					"source" : [ "obj-5", 0 ]
																				}

																			}
, 																			{
																				"patchline" : 																				{
																					"destination" : [ "obj-15", 0 ],
																					"source" : [ "obj-6", 1 ]
																				}

																			}
 ]
																	}
,
																	"patching_rect" : [ 120.0, 48.0, 172.0, 22.0 ],
																	"saved_object_attributes" : 																	{
																		"description" : "",
																		"digest" : "",
																		"globalpatchername" : "",
																		"tags" : ""
																	}
,
																	"text" : "p get_pre-buffer_length_in_ms"
																}

															}
, 															{
																"box" : 																{
																	"id" : "obj-9",
																	"maxclass" : "newobj",
																	"numinlets" : 2,
																	"numoutlets" : 1,
																	"outlettype" : [ "float" ],
																	"patching_rect" : [ 2.833333333333258, 154.0, 83.166666666666742, 22.0 ],
																	"text" : "f"
																}

															}
, 															{
																"box" : 																{
																	"id" : "obj-8",
																	"maxclass" : "newobj",
																	"numinlets" : 1,
																	"numoutlets" : 3,
																	"outlettype" : [ "bang", "float", "float" ],
																	"patching_rect" : [ 3.0, 72.0, 83.0, 22.0 ],
																	"text" : "t b f f"
																}

															}
, 															{
																"box" : 																{
																	"id" : "obj-7",
																	"maxclass" : "newobj",
																	"numinlets" : 2,
																	"numoutlets" : 1,
																	"outlettype" : [ "bang" ],
																	"patching_rect" : [ 3.0, 130.0, 51.0, 22.0 ],
																	"text" : "delay 0."
																}

															}
, 															{
																"box" : 																{
																	"id" : "obj-16",
																	"maxclass" : "newobj",
																	"numinlets" : 2,
																	"numoutlets" : 1,
																	"outlettype" : [ "float" ],
																	"patching_rect" : [ 35.0, 106.0, 29.5, 22.0 ],
																	"text" : "+ 0."
																}

															}
, 															{
																"box" : 																{
																	"comment" : "",
																	"id" : "obj-1",
																	"index" : 1,
																	"maxclass" : "inlet",
																	"numinlets" : 0,
																	"numoutlets" : 1,
																	"outlettype" : [ "bang" ],
																	"patching_rect" : [ 3.0, 3.0, 30.0, 30.0 ]
																}

															}
, 															{
																"box" : 																{
																	"comment" : "",
																	"id" : "obj-4",
																	"index" : 1,
																	"maxclass" : "outlet",
																	"numinlets" : 1,
																	"numoutlets" : 0,
																	"patching_rect" : [ 2.833333333333258, 178.0, 30.0, 30.0 ]
																}

															}
 ],
														"lines" : [ 															{
																"patchline" : 																{
																	"destination" : [ "obj-13", 0 ],
																	"midpoints" : [ 12.5, 40.0, 129.5, 40.0 ],
																	"order" : 0,
																	"source" : [ "obj-1", 0 ]
																}

															}
, 															{
																"patchline" : 																{
																	"destination" : [ "obj-18", 0 ],
																	"order" : 1,
																	"source" : [ "obj-1", 0 ]
																}

															}
, 															{
																"patchline" : 																{
																	"destination" : [ "obj-16", 1 ],
																	"midpoints" : [ 129.5, 99.5, 55.0, 99.5 ],
																	"source" : [ "obj-13", 0 ]
																}

															}
, 															{
																"patchline" : 																{
																	"destination" : [ "obj-7", 1 ],
																	"source" : [ "obj-16", 0 ]
																}

															}
, 															{
																"patchline" : 																{
																	"destination" : [ "obj-8", 0 ],
																	"source" : [ "obj-18", 0 ]
																}

															}
, 															{
																"patchline" : 																{
																	"destination" : [ "obj-9", 0 ],
																	"source" : [ "obj-7", 0 ]
																}

															}
, 															{
																"patchline" : 																{
																	"destination" : [ "obj-16", 0 ],
																	"source" : [ "obj-8", 1 ]
																}

															}
, 															{
																"patchline" : 																{
																	"destination" : [ "obj-7", 0 ],
																	"source" : [ "obj-8", 0 ]
																}

															}
, 															{
																"patchline" : 																{
																	"destination" : [ "obj-9", 1 ],
																	"source" : [ "obj-8", 2 ]
																}

															}
, 															{
																"patchline" : 																{
																	"destination" : [ "obj-4", 0 ],
																	"source" : [ "obj-9", 0 ]
																}

															}
 ]
													}
,
													"patching_rect" : [ 3.0, 57.999992737029118, 138.0, 22.0 ],
													"saved_object_attributes" : 													{
														"description" : "",
														"digest" : "",
														"globalpatchername" : "",
														"tags" : ""
													}
,
													"text" : "p latency_compensation"
												}

											}
, 											{
												"box" : 												{
													"fontface" : 0,
													"fontname" : "Arial",
													"fontsize" : 12.0,
													"id" : "obj-2",
													"maxclass" : "number~",
													"mode" : 2,
													"numinlets" : 2,
													"numoutlets" : 2,
													"outlettype" : [ "signal", "float" ],
													"patching_rect" : [ 167.0, 143.176178999999991, 56.0, 22.0 ],
													"sig" : 0.0
												}

											}
, 											{
												"box" : 												{
													"color" : [ 0.0, 1.0, 0.0, 1.0 ],
													"id" : "obj-78",
													"maxclass" : "newobj",
													"numinlets" : 1,
													"numoutlets" : 0,
													"patching_rect" : [ 204.0, 171.0, 253.0, 22.0 ],
													"text" : "s #0-from-JackTrip_buffer_playback_progress"
												}

											}
, 											{
												"box" : 												{
													"id" : "obj-22",
													"maxclass" : "newobj",
													"numinlets" : 1,
													"numoutlets" : 1,
													"outlettype" : [ "" ],
													"patching_rect" : [ 161.5, 81.999992737029118, 96.0, 22.0 ],
													"text" : "loadmess loop 1"
												}

											}
, 											{
												"box" : 												{
													"id" : "obj-73",
													"maxclass" : "newobj",
													"numinlets" : 3,
													"numoutlets" : 2,
													"outlettype" : [ "signal", "signal" ],
													"patching_rect" : [ 3.0, 119.176178999999991, 183.0, 22.0 ],
													"text" : "groove~ #0-from-JackTrip_buffer"
												}

											}
, 											{
												"box" : 												{
													"id" : "obj-21",
													"maxclass" : "newobj",
													"numinlets" : 2,
													"numoutlets" : 1,
													"outlettype" : [ "signal" ],
													"patcher" : 													{
														"fileversion" : 1,
														"appversion" : 														{
															"major" : 8,
															"minor" : 5,
															"revision" : 6,
															"architecture" : "x64",
															"modernui" : 1
														}
,
														"classnamespace" : "box",
														"rect" : [ 236.0, -430.0, 290.0, 139.0 ],
														"bglocked" : 0,
														"openinpresentation" : 0,
														"default_fontsize" : 12.0,
														"default_fontface" : 0,
														"default_fontname" : "Arial",
														"gridonopen" : 1,
														"gridsize" : [ 15.0, 15.0 ],
														"gridsnaponopen" : 1,
														"objectsnaponopen" : 1,
														"statusbarvisible" : 2,
														"toolbarvisible" : 1,
														"lefttoolbarpinned" : 0,
														"toptoolbarpinned" : 0,
														"righttoolbarpinned" : 0,
														"bottomtoolbarpinned" : 0,
														"toolbars_unpinned_last_save" : 15,
														"tallnewobj" : 0,
														"boxanimatetime" : 200,
														"enablehscroll" : 1,
														"enablevscroll" : 1,
														"devicewidth" : 0.0,
														"description" : "",
														"digest" : "",
														"tags" : "",
														"style" : "",
														"subpatcher_template" : "Default Max 7",
														"assistshowspatchername" : 0,
														"boxes" : [ 															{
																"box" : 																{
																	"id" : "obj-18",
																	"maxclass" : "message",
																	"numinlets" : 2,
																	"numoutlets" : 1,
																	"outlettype" : [ "" ],
																	"patching_rect" : [ 48.000000500000056, 34.999999999999943, 29.5, 22.0 ],
																	"text" : "0"
																}

															}
, 															{
																"box" : 																{
																	"comment" : "",
																	"id" : "obj-17",
																	"index" : 1,
																	"maxclass" : "inlet",
																	"numinlets" : 0,
																	"numoutlets" : 1,
																	"outlettype" : [ "float" ],
																	"patching_rect" : [ 2.0, 2.999999999999972, 30.0, 30.0 ]
																}

															}
, 															{
																"box" : 																{
																	"comment" : "",
																	"id" : "obj-19",
																	"index" : 2,
																	"maxclass" : "inlet",
																	"numinlets" : 0,
																	"numoutlets" : 1,
																	"outlettype" : [ "bang" ],
																	"patching_rect" : [ 48.000000500000056, 2.999999999999972, 30.0, 30.0 ]
																}

															}
, 															{
																"box" : 																{
																	"comment" : "",
																	"id" : "obj-20",
																	"index" : 1,
																	"maxclass" : "outlet",
																	"numinlets" : 1,
																	"numoutlets" : 0,
																	"patching_rect" : [ 2.0, 105.999993262970861, 30.0, 30.0 ]
																}

															}
, 															{
																"box" : 																{
																	"id" : "obj-58",
																	"maxclass" : "newobj",
																	"numinlets" : 1,
																	"numoutlets" : 1,
																	"outlettype" : [ "signal" ],
																	"patching_rect" : [ 17.0, 69.999999999999943, 31.0, 22.0 ],
																	"text" : "sig~"
																}

															}
, 															{
																"box" : 																{
																	"id" : "obj-57",
																	"maxclass" : "newobj",
																	"numinlets" : 1,
																	"numoutlets" : 2,
																	"outlettype" : [ "float", "int" ],
																	"patching_rect" : [ 2.0, 34.999999999999943, 34.0, 22.0 ],
																	"text" : "t f 1"
																}

															}
 ],
														"lines" : [ 															{
																"patchline" : 																{
																	"destination" : [ "obj-57", 0 ],
																	"source" : [ "obj-17", 0 ]
																}

															}
, 															{
																"patchline" : 																{
																	"destination" : [ "obj-20", 0 ],
																	"midpoints" : [ 57.500000500000056, 97.999996631485402, 11.5, 97.999996631485402 ],
																	"order" : 1,
																	"source" : [ "obj-18", 0 ]
																}

															}
, 															{
																"patchline" : 																{
																	"destination" : [ "obj-58", 0 ],
																	"midpoints" : [ 57.500000500000056, 62.999999999999943, 26.5, 62.999999999999943 ],
																	"order" : 0,
																	"source" : [ "obj-18", 0 ]
																}

															}
, 															{
																"patchline" : 																{
																	"destination" : [ "obj-18", 0 ],
																	"source" : [ "obj-19", 0 ]
																}

															}
, 															{
																"patchline" : 																{
																	"destination" : [ "obj-20", 0 ],
																	"source" : [ "obj-57", 0 ]
																}

															}
, 															{
																"patchline" : 																{
																	"destination" : [ "obj-58", 0 ],
																	"source" : [ "obj-57", 1 ]
																}

															}
, 															{
																"patchline" : 																{
																	"destination" : [ "obj-20", 0 ],
																	"midpoints" : [ 26.5, 98.499996631485402, 11.5, 98.499996631485402 ],
																	"source" : [ "obj-58", 0 ]
																}

															}
 ]
													}
,
													"patching_rect" : [ 3.0, 81.999992737029118, 156.5, 22.0 ],
													"saved_object_attributes" : 													{
														"description" : "",
														"digest" : "",
														"globalpatchername" : "",
														"tags" : ""
													}
,
													"text" : "p playback_control"
												}

											}
, 											{
												"box" : 												{
													"comment" : "",
													"id" : "obj-47",
													"index" : 1,
													"maxclass" : "inlet",
													"numinlets" : 0,
													"numoutlets" : 1,
													"outlettype" : [ "" ],
													"patching_rect" : [ 3.0, 1.999992737029118, 30.0, 30.0 ],
													"varname" : "u883002072"
												}

											}
, 											{
												"box" : 												{
													"comment" : "",
													"id" : "obj-48",
													"index" : 1,
													"maxclass" : "outlet",
													"numinlets" : 1,
													"numoutlets" : 0,
													"patching_rect" : [ 3.0, 166.0, 30.0, 30.0 ],
													"varname" : "u068002071"
												}

											}
, 											{
												"box" : 												{
													"id" : "obj-80",
													"maxclass" : "newobj",
													"numinlets" : 3,
													"numoutlets" : 3,
													"outlettype" : [ "bang", "bang", "" ],
													"patching_rect" : [ 3.0, 33.999992737029118, 294.0, 22.0 ],
													"text" : "sel Play Stop"
												}

											}
 ],
										"lines" : [ 											{
												"patchline" : 												{
													"destination" : [ "obj-78", 0 ],
													"source" : [ "obj-2", 1 ]
												}

											}
, 											{
												"patchline" : 												{
													"destination" : [ "obj-73", 0 ],
													"source" : [ "obj-21", 0 ]
												}

											}
, 											{
												"patchline" : 												{
													"destination" : [ "obj-73", 0 ],
													"midpoints" : [ 171.0, 110.088085868514554, 12.5, 110.088085868514554 ],
													"source" : [ "obj-22", 0 ]
												}

											}
, 											{
												"patchline" : 												{
													"destination" : [ "obj-80", 0 ],
													"source" : [ "obj-47", 0 ]
												}

											}
, 											{
												"patchline" : 												{
													"destination" : [ "obj-21", 0 ],
													"source" : [ "obj-5", 0 ]
												}

											}
, 											{
												"patchline" : 												{
													"destination" : [ "obj-2", 0 ],
													"source" : [ "obj-73", 1 ]
												}

											}
, 											{
												"patchline" : 												{
													"destination" : [ "obj-48", 0 ],
													"source" : [ "obj-73", 0 ]
												}

											}
, 											{
												"patchline" : 												{
													"destination" : [ "obj-21", 1 ],
													"source" : [ "obj-80", 1 ]
												}

											}
, 											{
												"patchline" : 												{
													"destination" : [ "obj-5", 0 ],
													"source" : [ "obj-80", 0 ]
												}

											}
 ]
									}
,
									"patching_rect" : [ 2.000000000000199, 53.0, 66.0, 22.0 ],
									"saved_object_attributes" : 									{
										"description" : "",
										"digest" : "",
										"globalpatchername" : "",
										"tags" : ""
									}
,
									"text" : "p playback"
								}

							}
, 							{
								"box" : 								{
									"color" : [ 1.0, 0.0, 0.0, 1.0 ],
									"id" : "obj-75",
									"maxclass" : "newobj",
									"numinlets" : 0,
									"numoutlets" : 1,
									"outlettype" : [ "" ],
									"patching_rect" : [ 183.000000000000227, 9.99999994811651, 205.0, 22.0 ],
									"text" : "r Netronome_master_transport_state"
								}

							}
, 							{
								"box" : 								{
									"id" : "obj-7",
									"maxclass" : "newobj",
									"numinlets" : 2,
									"numoutlets" : 0,
									"patcher" : 									{
										"fileversion" : 1,
										"appversion" : 										{
											"major" : 8,
											"minor" : 5,
											"revision" : 6,
											"architecture" : "x64",
											"modernui" : 1
										}
,
										"classnamespace" : "box",
										"rect" : [ 1350.0, -255.0, 344.0, 125.0 ],
										"bglocked" : 0,
										"openinpresentation" : 0,
										"default_fontsize" : 12.0,
										"default_fontface" : 0,
										"default_fontname" : "Arial",
										"gridonopen" : 1,
										"gridsize" : [ 15.0, 15.0 ],
										"gridsnaponopen" : 1,
										"objectsnaponopen" : 1,
										"statusbarvisible" : 2,
										"toolbarvisible" : 1,
										"lefttoolbarpinned" : 0,
										"toptoolbarpinned" : 0,
										"righttoolbarpinned" : 0,
										"bottomtoolbarpinned" : 0,
										"toolbars_unpinned_last_save" : 15,
										"tallnewobj" : 0,
										"boxanimatetime" : 200,
										"enablehscroll" : 1,
										"enablevscroll" : 1,
										"devicewidth" : 0.0,
										"description" : "",
										"digest" : "",
										"tags" : "",
										"style" : "",
										"subpatcher_template" : "Default Max 7",
										"assistshowspatchername" : 0,
										"boxes" : [ 											{
												"box" : 												{
													"id" : "obj-1",
													"maxclass" : "newobj",
													"numinlets" : 1,
													"numoutlets" : 2,
													"outlettype" : [ "", "clear" ],
													"patching_rect" : [ 35.0, 34.0, 196.0, 22.0 ],
													"text" : "t l clear"
												}

											}
, 											{
												"box" : 												{
													"id" : "obj-8",
													"maxclass" : "newobj",
													"numinlets" : 1,
													"numoutlets" : 0,
													"patcher" : 													{
														"fileversion" : 1,
														"appversion" : 														{
															"major" : 8,
															"minor" : 5,
															"revision" : 6,
															"architecture" : "x64",
															"modernui" : 1
														}
,
														"classnamespace" : "box",
														"rect" : [ 733.0, 407.0, 253.0, 75.0 ],
														"bglocked" : 0,
														"openinpresentation" : 0,
														"default_fontsize" : 12.0,
														"default_fontface" : 0,
														"default_fontname" : "Arial",
														"gridonopen" : 1,
														"gridsize" : [ 15.0, 15.0 ],
														"gridsnaponopen" : 1,
														"objectsnaponopen" : 1,
														"statusbarvisible" : 2,
														"toolbarvisible" : 1,
														"lefttoolbarpinned" : 0,
														"toptoolbarpinned" : 0,
														"righttoolbarpinned" : 0,
														"bottomtoolbarpinned" : 0,
														"toolbars_unpinned_last_save" : 15,
														"tallnewobj" : 0,
														"boxanimatetime" : 200,
														"enablehscroll" : 1,
														"enablevscroll" : 1,
														"devicewidth" : 0.0,
														"description" : "",
														"digest" : "",
														"tags" : "",
														"style" : "",
														"subpatcher_template" : "Default Max 7",
														"assistshowspatchername" : 0,
														"boxes" : [ 															{
																"box" : 																{
																	"id" : "obj-3",
																	"maxclass" : "newobj",
																	"numinlets" : 1,
																	"numoutlets" : 1,
																	"outlettype" : [ "" ],
																	"patching_rect" : [ 34.5, 12.0, 121.0, 22.0 ],
																	"text" : "loadmess size 10000"
																}

															}
, 															{
																"box" : 																{
																	"comment" : "",
																	"id" : "obj-1",
																	"index" : 1,
																	"maxclass" : "inlet",
																	"numinlets" : 0,
																	"numoutlets" : 1,
																	"outlettype" : [ "clear" ],
																	"patching_rect" : [ 2.5, 4.0, 30.0, 30.0 ]
																}

															}
, 															{
																"box" : 																{
																	"id" : "obj-70",
																	"maxclass" : "newobj",
																	"numinlets" : 1,
																	"numoutlets" : 2,
																	"outlettype" : [ "float", "bang" ],
																	"patching_rect" : [ 2.5, 47.0, 177.0, 22.0 ],
																	"text" : "buffer~ #0-from-JackTrip_buffer"
																}

															}
 ],
														"lines" : [ 															{
																"patchline" : 																{
																	"destination" : [ "obj-70", 0 ],
																	"source" : [ "obj-1", 0 ]
																}

															}
, 															{
																"patchline" : 																{
																	"destination" : [ "obj-70", 0 ],
																	"midpoints" : [ 44.0, 40.0, 12.0, 40.0 ],
																	"source" : [ "obj-3", 0 ]
																}

															}
 ]
													}
,
													"patching_rect" : [ 212.0, 58.0, 129.0, 22.0 ],
													"saved_object_attributes" : 													{
														"description" : "",
														"digest" : "",
														"globalpatchername" : "",
														"tags" : ""
													}
,
													"text" : "p from-JackTrip_buffer"
												}

											}
, 											{
												"box" : 												{
													"id" : "obj-3",
													"maxclass" : "newobj",
													"numinlets" : 1,
													"numoutlets" : 1,
													"outlettype" : [ "" ],
													"patcher" : 													{
														"fileversion" : 1,
														"appversion" : 														{
															"major" : 8,
															"minor" : 5,
															"revision" : 6,
															"architecture" : "x64",
															"modernui" : 1
														}
,
														"classnamespace" : "box",
														"rect" : [ 844.0, -395.0, 300.0, 135.0 ],
														"bglocked" : 0,
														"openinpresentation" : 0,
														"default_fontsize" : 12.0,
														"default_fontface" : 0,
														"default_fontname" : "Arial",
														"gridonopen" : 1,
														"gridsize" : [ 15.0, 15.0 ],
														"gridsnaponopen" : 1,
														"objectsnaponopen" : 1,
														"statusbarvisible" : 2,
														"toolbarvisible" : 1,
														"lefttoolbarpinned" : 0,
														"toptoolbarpinned" : 0,
														"righttoolbarpinned" : 0,
														"bottomtoolbarpinned" : 0,
														"toolbars_unpinned_last_save" : 15,
														"tallnewobj" : 0,
														"boxanimatetime" : 200,
														"enablehscroll" : 1,
														"enablevscroll" : 1,
														"devicewidth" : 0.0,
														"description" : "",
														"digest" : "",
														"tags" : "",
														"style" : "",
														"subpatcher_template" : "Default Max 7",
														"assistshowspatchername" : 0,
														"boxes" : [ 															{
																"box" : 																{
																	"comment" : "",
																	"id" : "obj-2",
																	"index" : 1,
																	"maxclass" : "inlet",
																	"numinlets" : 0,
																	"numoutlets" : 1,
																	"outlettype" : [ "" ],
																	"patching_rect" : [ 2.25, 2.000000000000057, 30.0, 30.0 ]
																}

															}
, 															{
																"box" : 																{
																	"id" : "obj-50",
																	"maxclass" : "message",
																	"numinlets" : 2,
																	"numoutlets" : 1,
																	"outlettype" : [ "" ],
																	"patching_rect" : [ 2.25, 58.911910262958202, 29.5, 22.0 ],
																	"text" : "1"
																}

															}
, 															{
																"box" : 																{
																	"id" : "obj-36",
																	"maxclass" : "message",
																	"numinlets" : 2,
																	"numoutlets" : 1,
																	"outlettype" : [ "" ],
																	"patching_rect" : [ 33.75, 58.911910262958202, 29.5, 22.0 ],
																	"text" : "0"
																}

															}
, 															{
																"box" : 																{
																	"id" : "obj-24",
																	"maxclass" : "newobj",
																	"numinlets" : 3,
																	"numoutlets" : 3,
																	"outlettype" : [ "bang", "bang", "" ],
																	"patching_rect" : [ 2.25, 34.000000000000057, 82.0, 22.0 ],
																	"text" : "sel Play Stop"
																}

															}
, 															{
																"box" : 																{
																	"id" : "obj-86",
																	"maxclass" : "newobj",
																	"numinlets" : 1,
																	"numoutlets" : 1,
																	"outlettype" : [ "" ],
																	"patching_rect" : [ 86.25, 34.000000000000057, 96.0, 22.0 ],
																	"text" : "loadmess loop 1"
																}

															}
, 															{
																"box" : 																{
																	"comment" : "",
																	"id" : "obj-1",
																	"index" : 1,
																	"maxclass" : "outlet",
																	"numinlets" : 1,
																	"numoutlets" : 0,
																	"patching_rect" : [ 2.25, 102.0, 30.0, 30.0 ]
																}

															}
 ],
														"lines" : [ 															{
																"patchline" : 																{
																	"destination" : [ "obj-24", 0 ],
																	"source" : [ "obj-2", 0 ]
																}

															}
, 															{
																"patchline" : 																{
																	"destination" : [ "obj-36", 0 ],
																	"source" : [ "obj-24", 1 ]
																}

															}
, 															{
																"patchline" : 																{
																	"destination" : [ "obj-50", 0 ],
																	"source" : [ "obj-24", 0 ]
																}

															}
, 															{
																"patchline" : 																{
																	"destination" : [ "obj-1", 0 ],
																	"midpoints" : [ 43.25, 90.955955131479101, 11.75, 90.955955131479101 ],
																	"source" : [ "obj-36", 0 ]
																}

															}
, 															{
																"patchline" : 																{
																	"destination" : [ "obj-1", 0 ],
																	"midpoints" : [ 11.75, 91.955955131479101, 11.75, 91.955955131479101 ],
																	"source" : [ "obj-50", 0 ]
																}

															}
, 															{
																"patchline" : 																{
																	"destination" : [ "obj-1", 0 ],
																	"midpoints" : [ 95.75, 90.955955131479101, 11.75, 90.955955131479101 ],
																	"source" : [ "obj-86", 0 ]
																}

															}
 ]
													}
,
													"patching_rect" : [ 35.0, 58.0, 175.0, 22.0 ],
													"saved_object_attributes" : 													{
														"description" : "",
														"digest" : "",
														"globalpatchername" : "",
														"tags" : ""
													}
,
													"text" : "p from-JackTrip_record_control"
												}

											}
, 											{
												"box" : 												{
													"id" : "obj-2",
													"maxclass" : "newobj",
													"numinlets" : 3,
													"numoutlets" : 1,
													"outlettype" : [ "signal" ],
													"patching_rect" : [ 3.0, 97.0, 180.0, 22.0 ],
													"text" : "record~ #0-from-JackTrip_buffer"
												}

											}
, 											{
												"box" : 												{
													"comment" : "",
													"id" : "obj-5",
													"index" : 2,
													"maxclass" : "inlet",
													"numinlets" : 0,
													"numoutlets" : 1,
													"outlettype" : [ "" ],
													"patching_rect" : [ 35.0, 2.0, 30.0, 30.0 ]
												}

											}
, 											{
												"box" : 												{
													"comment" : "",
													"id" : "obj-6",
													"index" : 1,
													"maxclass" : "inlet",
													"numinlets" : 0,
													"numoutlets" : 1,
													"outlettype" : [ "signal" ],
													"patching_rect" : [ 3.0, 2.0, 30.0, 30.0 ]
												}

											}
 ],
										"lines" : [ 											{
												"patchline" : 												{
													"destination" : [ "obj-3", 0 ],
													"source" : [ "obj-1", 0 ]
												}

											}
, 											{
												"patchline" : 												{
													"destination" : [ "obj-8", 0 ],
													"source" : [ "obj-1", 1 ]
												}

											}
, 											{
												"patchline" : 												{
													"destination" : [ "obj-2", 0 ],
													"midpoints" : [ 44.5, 90.500000000000057, 12.5, 90.500000000000057 ],
													"source" : [ "obj-3", 0 ]
												}

											}
, 											{
												"patchline" : 												{
													"destination" : [ "obj-1", 0 ],
													"source" : [ "obj-5", 0 ]
												}

											}
, 											{
												"patchline" : 												{
													"destination" : [ "obj-2", 0 ],
													"source" : [ "obj-6", 0 ]
												}

											}
 ]
									}
,
									"patching_rect" : [ 70.000000000000227, 53.0, 132.0, 22.0 ],
									"saved_object_attributes" : 									{
										"description" : "",
										"digest" : "",
										"globalpatchername" : "",
										"tags" : ""
									}
,
									"text" : "p record_from-JackTrip"
								}

							}
, 							{
								"box" : 								{
									"comment" : "",
									"id" : "obj-21",
									"index" : 1,
									"maxclass" : "inlet",
									"numinlets" : 0,
									"numoutlets" : 1,
									"outlettype" : [ "signal" ],
									"patching_rect" : [ 70.000014999999735, 1.99999994811651, 30.0, 30.0 ]
								}

							}
, 							{
								"box" : 								{
									"comment" : "",
									"id" : "obj-25",
									"index" : 1,
									"maxclass" : "outlet",
									"numinlets" : 1,
									"numoutlets" : 0,
									"patching_rect" : [ 2.000000000000199, 77.0, 30.0, 30.0 ]
								}

							}
 ],
						"lines" : [ 							{
								"patchline" : 								{
									"destination" : [ "obj-7", 0 ],
									"source" : [ "obj-21", 0 ]
								}

							}
, 							{
								"patchline" : 								{
									"destination" : [ "obj-25", 0 ],
									"source" : [ "obj-49", 0 ]
								}

							}
, 							{
								"patchline" : 								{
									"destination" : [ "obj-49", 0 ],
									"midpoints" : [ 192.500000000000227, 45.999999974058255, 11.500000000000199, 45.999999974058255 ],
									"order" : 1,
									"source" : [ "obj-75", 0 ]
								}

							}
, 							{
								"patchline" : 								{
									"destination" : [ "obj-7", 1 ],
									"order" : 0,
									"source" : [ "obj-75", 0 ]
								}

							}
 ]
					}
,
					"patching_rect" : [ 62.416764000000285, 178.083157103767235, 138.0, 22.0 ],
					"saved_object_attributes" : 					{
						"description" : "",
						"digest" : "",
						"globalpatchername" : "",
						"tags" : ""
					}
,
					"text" : "p latency_compensation"
				}

			}
, 			{
				"box" : 				{
					"id" : "obj-11",
					"maxclass" : "live.meter~",
					"numinlets" : 1,
					"numoutlets" : 2,
					"orientation" : 1,
					"outlettype" : [ "float", "int" ],
					"patching_rect" : [ 94.250292000000854, 230.083157103767235, 58.0, 11.0 ],
					"presentation" : 1,
					"presentation_rect" : [ 5.500000000000227, 90.79167824472313, 201.0, 5.0 ]
				}

			}
, 			{
				"box" : 				{
					"bgcolor" : [ 0.2, 0.2, 0.2, 0.0 ],
					"elementcolor" : [ 0.349019607843137, 0.349019607843137, 0.349019607843137, 0.0 ],
					"floatoutput" : 1,
					"id" : "obj-40",
					"ignoreclick" : 1,
					"knobcolor" : [ 1.0, 0.0, 0.0, 1.0 ],
					"knobshape" : 5,
					"maxclass" : "slider",
					"numinlets" : 1,
					"numoutlets" : 1,
					"outlettype" : [ "" ],
					"parameter_enable" : 0,
					"patching_rect" : [ 216.416764000000285, 272.083157103767235, 243.0, 36.0 ],
					"presentation" : 1,
					"presentation_rect" : [ 5.500000000000227, 59.79167824472313, 199.666471999999203, 29.0 ],
					"size" : 1.0,
					"thickness" : 40.0
				}

			}
, 			{
				"box" : 				{
					"color" : [ 1.0, 0.0, 0.0, 1.0 ],
					"id" : "obj-34",
					"maxclass" : "newobj",
					"numinlets" : 0,
					"numoutlets" : 1,
					"outlettype" : [ "" ],
					"patching_rect" : [ 216.416764000000285, 248.083157103767235, 251.0, 22.0 ],
					"text" : "r #0-from-JackTrip_buffer_playback_progress"
				}

			}
, 			{
				"box" : 				{
					"id" : "obj-109",
					"maxclass" : "newobj",
					"numinlets" : 1,
					"numoutlets" : 1,
					"outlettype" : [ "" ],
					"patching_rect" : [ 2.416764000000285, 248.083157103767235, 210.0, 22.0 ],
					"text" : "loadmess set #0-from-JackTrip_buffer"
				}

			}
, 			{
				"box" : 				{
					"buffername" : "#0-from-JackTrip_buffer",
					"id" : "obj-18",
					"maxclass" : "waveform~",
					"numinlets" : 5,
					"numoutlets" : 6,
					"outlettype" : [ "float", "float", "float", "float", "list", "" ],
					"patching_rect" : [ 2.416764000000285, 272.083157103767235, 205.0, 36.0 ],
					"presentation" : 1,
					"presentation_rect" : [ 5.500000000000227, 59.79167824472313, 199.666471999999203, 29.0 ],
					"selectioncolor" : [ 0.929411764705882, 0.929411764705882, 0.352941176470588, 0.0 ]
				}

			}
, 			{
				"box" : 				{
					"comment" : "",
					"id" : "obj-10",
					"index" : 0,
					"maxclass" : "inlet",
					"numinlets" : 0,
					"numoutlets" : 1,
					"outlettype" : [ "" ],
					"patching_rect" : [ 2.416764000000285, 2.404029724058034, 30.0, 30.0 ]
				}

			}
, 			{
				"box" : 				{
					"id" : "obj-67",
					"keymode" : 1,
					"maxclass" : "textedit",
					"numinlets" : 1,
					"numoutlets" : 4,
					"outlettype" : [ "", "int", "", "" ],
					"parameter_enable" : 0,
					"patching_rect" : [ 2.416764000000285, 34.762284327825284, 101.0, 18.641745448116467 ],
					"presentation" : 1,
					"presentation_rect" : [ 5.500000000000227, 6.79167824472313, 199.666471999999203, 20.0 ],
					"text" : "#0",
					"textjustification" : 1,
					"varname" : "NTM_channel_name"
				}

			}
, 			{
				"box" : 				{
					"comment" : "",
					"id" : "obj-2",
					"index" : 0,
					"maxclass" : "outlet",
					"numinlets" : 1,
					"numoutlets" : 0,
					"patching_rect" : [ 62.416764000000285, 211.083157103767235, 30.0, 30.0 ]
				}

			}
, 			{
				"box" : 				{
					"id" : "obj-6",
					"maxclass" : "live.meter~",
					"numinlets" : 1,
					"numoutlets" : 2,
					"orientation" : 1,
					"outlettype" : [ "float", "int" ],
					"patching_rect" : [ 2.416764000000285, 178.083157103767235, 58.0, 10.0 ],
					"presentation" : 1,
					"presentation_rect" : [ 5.500000000000227, 52.79167824472313, 201.0, 5.0 ]
				}

			}
, 			{
				"box" : 				{
					"id" : "obj-29",
					"maxclass" : "newobj",
					"numinlets" : 1,
					"numoutlets" : 1,
					"outlettype" : [ "signal" ],
					"patcher" : 					{
						"fileversion" : 1,
						"appversion" : 						{
							"major" : 8,
							"minor" : 5,
							"revision" : 6,
							"architecture" : "x64",
							"modernui" : 1
						}
,
						"classnamespace" : "box",
						"rect" : [ 396.0, -760.0, 269.0, 113.0 ],
						"bglocked" : 0,
						"openinpresentation" : 0,
						"default_fontsize" : 12.0,
						"default_fontface" : 0,
						"default_fontname" : "Arial",
						"gridonopen" : 1,
						"gridsize" : [ 15.0, 15.0 ],
						"gridsnaponopen" : 1,
						"objectsnaponopen" : 1,
						"statusbarvisible" : 2,
						"toolbarvisible" : 1,
						"lefttoolbarpinned" : 0,
						"toptoolbarpinned" : 0,
						"righttoolbarpinned" : 0,
						"bottomtoolbarpinned" : 0,
						"toolbars_unpinned_last_save" : 15,
						"tallnewobj" : 0,
						"boxanimatetime" : 200,
						"enablehscroll" : 1,
						"enablevscroll" : 1,
						"devicewidth" : 0.0,
						"description" : "",
						"digest" : "",
						"tags" : "",
						"style" : "",
						"subpatcher_template" : "Default Max 7",
						"assistshowspatchername" : 0,
						"boxes" : [ 							{
								"box" : 								{
									"id" : "obj-142",
									"maxclass" : "newobj",
									"numinlets" : 1,
									"numoutlets" : 2,
									"outlettype" : [ "signal", "signal" ],
									"patcher" : 									{
										"fileversion" : 1,
										"appversion" : 										{
											"major" : 8,
											"minor" : 5,
											"revision" : 6,
											"architecture" : "x64",
											"modernui" : 1
										}
,
										"classnamespace" : "box",
										"rect" : [ 542.0, -599.0, 395.0, 90.0 ],
										"bglocked" : 0,
										"openinpresentation" : 0,
										"default_fontsize" : 12.0,
										"default_fontface" : 0,
										"default_fontname" : "Arial",
										"gridonopen" : 1,
										"gridsize" : [ 15.0, 15.0 ],
										"gridsnaponopen" : 1,
										"objectsnaponopen" : 1,
										"statusbarvisible" : 2,
										"toolbarvisible" : 1,
										"lefttoolbarpinned" : 0,
										"toptoolbarpinned" : 0,
										"righttoolbarpinned" : 0,
										"bottomtoolbarpinned" : 0,
										"toolbars_unpinned_last_save" : 15,
										"tallnewobj" : 0,
										"boxanimatetime" : 200,
										"enablehscroll" : 1,
										"enablevscroll" : 1,
										"devicewidth" : 0.0,
										"description" : "",
										"digest" : "",
										"tags" : "",
										"style" : "",
										"subpatcher_template" : "",
										"assistshowspatchername" : 0,
										"boxes" : [ 											{
												"box" : 												{
													"comment" : "",
													"id" : "obj-4",
													"index" : 1,
													"maxclass" : "outlet",
													"numinlets" : 1,
													"numoutlets" : 0,
													"patching_rect" : [ 2.00000266666656, 58.0, 30.0, 30.0 ]
												}

											}
, 											{
												"box" : 												{
													"color" : [ 1.0, 0.0, 0.0, 1.0 ],
													"id" : "obj-134",
													"maxclass" : "newobj",
													"numinlets" : 0,
													"numoutlets" : 1,
													"outlettype" : [ "" ],
													"patching_rect" : [ 151.000002666666546, 10.0, 241.0, 22.0 ],
													"text" : "r Netronome_latency_test_cutoff_frequency"
												}

											}
, 											{
												"box" : 												{
													"id" : "obj-124",
													"maxclass" : "newobj",
													"numinlets" : 2,
													"numoutlets" : 2,
													"outlettype" : [ "signal", "signal" ],
													"patching_rect" : [ 2.00000266666656, 34.0, 168.0, 22.0 ],
													"text" : "pfft~ brickwall-crossover~ 128"
												}

											}
, 											{
												"box" : 												{
													"comment" : "",
													"id" : "obj-1",
													"index" : 1,
													"maxclass" : "inlet",
													"numinlets" : 0,
													"numoutlets" : 1,
													"outlettype" : [ "signal" ],
													"patching_rect" : [ 2.00000266666656, 2.0, 30.0, 30.0 ]
												}

											}
, 											{
												"box" : 												{
													"comment" : "",
													"id" : "obj-2",
													"index" : 2,
													"maxclass" : "outlet",
													"numinlets" : 1,
													"numoutlets" : 0,
													"patching_rect" : [ 151.000002666666546, 58.0, 30.0, 30.0 ]
												}

											}
 ],
										"lines" : [ 											{
												"patchline" : 												{
													"destination" : [ "obj-124", 0 ],
													"source" : [ "obj-1", 0 ]
												}

											}
, 											{
												"patchline" : 												{
													"destination" : [ "obj-2", 0 ],
													"source" : [ "obj-124", 1 ]
												}

											}
, 											{
												"patchline" : 												{
													"destination" : [ "obj-4", 0 ],
													"source" : [ "obj-124", 0 ]
												}

											}
, 											{
												"patchline" : 												{
													"destination" : [ "obj-124", 1 ],
													"source" : [ "obj-134", 0 ]
												}

											}
 ]
									}
,
									"patching_rect" : [ 2.000014999999998, 56.99999994811651, 135.0, 22.0 ],
									"saved_object_attributes" : 									{
										"description" : "",
										"digest" : "",
										"globalpatchername" : "",
										"tags" : ""
									}
,
									"text" : "p latency_test_brickwall"
								}

							}
, 							{
								"box" : 								{
									"id" : "obj-52",
									"maxclass" : "newobj",
									"numinlets" : 1,
									"numoutlets" : 1,
									"outlettype" : [ "signal" ],
									"patcher" : 									{
										"fileversion" : 1,
										"appversion" : 										{
											"major" : 8,
											"minor" : 5,
											"revision" : 6,
											"architecture" : "x64",
											"modernui" : 1
										}
,
										"classnamespace" : "box",
										"rect" : [ 1648.0, 626.0, 264.0, 129.0 ],
										"bglocked" : 0,
										"openinpresentation" : 0,
										"default_fontsize" : 12.0,
										"default_fontface" : 0,
										"default_fontname" : "Arial",
										"gridonopen" : 1,
										"gridsize" : [ 15.0, 15.0 ],
										"gridsnaponopen" : 1,
										"objectsnaponopen" : 1,
										"statusbarvisible" : 2,
										"toolbarvisible" : 1,
										"lefttoolbarpinned" : 0,
										"toptoolbarpinned" : 0,
										"righttoolbarpinned" : 0,
										"bottomtoolbarpinned" : 0,
										"toolbars_unpinned_last_save" : 15,
										"tallnewobj" : 0,
										"boxanimatetime" : 200,
										"enablehscroll" : 1,
										"enablevscroll" : 1,
										"devicewidth" : 0.0,
										"description" : "",
										"digest" : "",
										"tags" : "",
										"style" : "",
										"subpatcher_template" : "Default Max 7",
										"assistshowspatchername" : 0,
										"boxes" : [ 											{
												"box" : 												{
													"id" : "obj-1",
													"maxclass" : "newobj",
													"numinlets" : 1,
													"numoutlets" : 1,
													"outlettype" : [ "" ],
													"patching_rect" : [ 34.0, 11.000002051883598, 70.0, 22.0 ],
													"text" : "loadmess 0"
												}

											}
, 											{
												"box" : 												{
													"id" : "obj-19",
													"maxclass" : "newobj",
													"numinlets" : 1,
													"numoutlets" : 1,
													"outlettype" : [ "" ],
													"patching_rect" : [ 2.0, 48.0, 82.0, 22.0 ],
													"text" : "prepend set 1"
												}

											}
, 											{
												"box" : 												{
													"id" : "obj-15",
													"maxclass" : "newobj",
													"numinlets" : 1,
													"numoutlets" : 2,
													"outlettype" : [ "signal", "signal" ],
													"patching_rect" : [ 2.0, 72.0, 35.0, 22.0 ],
													"text" : "adc~"
												}

											}
, 											{
												"box" : 												{
													"comment" : "",
													"id" : "obj-48",
													"index" : 1,
													"maxclass" : "inlet",
													"numinlets" : 0,
													"numoutlets" : 1,
													"outlettype" : [ "int" ],
													"patching_rect" : [ 2.0, 3.000002051883598, 30.0, 30.0 ]
												}

											}
, 											{
												"box" : 												{
													"comment" : "",
													"id" : "obj-50",
													"index" : 1,
													"maxclass" : "outlet",
													"numinlets" : 1,
													"numoutlets" : 0,
													"patching_rect" : [ 2.0, 96.0, 30.0, 30.0 ]
												}

											}
 ],
										"lines" : [ 											{
												"patchline" : 												{
													"destination" : [ "obj-19", 0 ],
													"midpoints" : [ 43.5, 40.000001025941799, 11.5, 40.000001025941799 ],
													"source" : [ "obj-1", 0 ]
												}

											}
, 											{
												"patchline" : 												{
													"destination" : [ "obj-50", 0 ],
													"source" : [ "obj-15", 0 ]
												}

											}
, 											{
												"patchline" : 												{
													"destination" : [ "obj-15", 0 ],
													"source" : [ "obj-19", 0 ]
												}

											}
, 											{
												"patchline" : 												{
													"destination" : [ "obj-19", 0 ],
													"source" : [ "obj-48", 0 ]
												}

											}
 ]
									}
,
									"patching_rect" : [ 2.000014999999998, 32.99999994811651, 45.0, 22.0 ],
									"saved_object_attributes" : 									{
										"description" : "",
										"digest" : "",
										"globalpatchername" : "",
										"tags" : ""
									}
,
									"text" : "p input"
								}

							}
, 							{
								"box" : 								{
									"comment" : "",
									"id" : "obj-21",
									"index" : 1,
									"maxclass" : "inlet",
									"numinlets" : 0,
									"numoutlets" : 1,
									"outlettype" : [ "int" ],
									"patching_rect" : [ 2.000014999999735, 0.99999994811651, 30.0, 30.0 ]
								}

							}
, 							{
								"box" : 								{
									"comment" : "",
									"id" : "obj-25",
									"index" : 1,
									"maxclass" : "outlet",
									"numinlets" : 1,
									"numoutlets" : 0,
									"patching_rect" : [ 2.000014999999998, 80.99999994811651, 30.0, 30.0 ]
								}

							}
 ],
						"lines" : [ 							{
								"patchline" : 								{
									"destination" : [ "obj-25", 0 ],
									"source" : [ "obj-142", 0 ]
								}

							}
, 							{
								"patchline" : 								{
									"destination" : [ "obj-52", 0 ],
									"source" : [ "obj-21", 0 ]
								}

							}
, 							{
								"patchline" : 								{
									"destination" : [ "obj-142", 0 ],
									"source" : [ "obj-52", 0 ]
								}

							}
 ]
					}
,
					"patching_rect" : [ 2.416764000000285, 117.083157103767235, 78.0, 22.0 ],
					"saved_object_attributes" : 					{
						"description" : "",
						"digest" : "",
						"globalpatchername" : "",
						"tags" : ""
					}
,
					"text" : "p manage_io"
				}

			}
, 			{
				"box" : 				{
					"id" : "obj-141",
					"maxclass" : "newobj",
					"numinlets" : 0,
					"numoutlets" : 2,
					"outlettype" : [ "", "" ],
					"patcher" : 					{
						"fileversion" : 1,
						"appversion" : 						{
							"major" : 8,
							"minor" : 5,
							"revision" : 6,
							"architecture" : "x64",
							"modernui" : 1
						}
,
						"classnamespace" : "box",
						"rect" : [ 474.0, 189.0, 284.0, 189.0 ],
						"bglocked" : 0,
						"openinpresentation" : 0,
						"default_fontsize" : 12.0,
						"default_fontface" : 0,
						"default_fontname" : "Arial",
						"gridonopen" : 1,
						"gridsize" : [ 15.0, 15.0 ],
						"gridsnaponopen" : 1,
						"objectsnaponopen" : 1,
						"statusbarvisible" : 2,
						"toolbarvisible" : 1,
						"lefttoolbarpinned" : 0,
						"toptoolbarpinned" : 0,
						"righttoolbarpinned" : 0,
						"bottomtoolbarpinned" : 0,
						"toolbars_unpinned_last_save" : 15,
						"tallnewobj" : 0,
						"boxanimatetime" : 200,
						"enablehscroll" : 1,
						"enablevscroll" : 1,
						"devicewidth" : 0.0,
						"description" : "",
						"digest" : "",
						"tags" : "",
						"style" : "",
						"subpatcher_template" : "Default Max 7",
						"assistshowspatchername" : 0,
						"boxes" : [ 							{
								"box" : 								{
									"id" : "obj-7",
									"maxclass" : "newobj",
									"numinlets" : 2,
									"numoutlets" : 1,
									"outlettype" : [ "" ],
									"patching_rect" : [ 77.0, 118.0, 52.0, 22.0 ],
									"text" : "gate 1 1"
								}

							}
, 							{
								"box" : 								{
									"id" : "obj-8",
									"maxclass" : "message",
									"numinlets" : 2,
									"numoutlets" : 1,
									"outlettype" : [ "" ],
									"patching_rect" : [ 77.0, 89.0, 29.5, 22.0 ],
									"text" : "0"
								}

							}
, 							{
								"box" : 								{
									"id" : "obj-6",
									"maxclass" : "newobj",
									"numinlets" : 2,
									"numoutlets" : 1,
									"outlettype" : [ "" ],
									"patching_rect" : [ 4.0, 118.0, 52.0, 22.0 ],
									"text" : "gate 1 1"
								}

							}
, 							{
								"box" : 								{
									"id" : "obj-5",
									"maxclass" : "message",
									"numinlets" : 2,
									"numoutlets" : 1,
									"outlettype" : [ "" ],
									"patching_rect" : [ 4.0, 89.0, 29.5, 22.0 ],
									"text" : "0"
								}

							}
, 							{
								"box" : 								{
									"id" : "obj-4",
									"maxclass" : "newobj",
									"numinlets" : 2,
									"numoutlets" : 2,
									"outlettype" : [ "", "" ],
									"patching_rect" : [ 4.0, 65.0, 71.0, 22.0 ],
									"text" : "route init"
								}

							}
, 							{
								"box" : 								{
									"id" : "obj-1",
									"maxclass" : "newobj",
									"numinlets" : 2,
									"numoutlets" : 2,
									"outlettype" : [ "", "" ],
									"patching_rect" : [ 77.0, 65.0, 79.0, 22.0 ],
									"text" : "route init"
								}

							}
, 							{
								"box" : 								{
									"id" : "obj-118",
									"maxclass" : "newobj",
									"numinlets" : 2,
									"numoutlets" : 2,
									"outlettype" : [ "", "" ],
									"patching_rect" : [ 77.0, 41.0, 79.0, 22.0 ],
									"text" : "route outputs"
								}

							}
, 							{
								"box" : 								{
									"id" : "obj-117",
									"maxclass" : "newobj",
									"numinlets" : 2,
									"numoutlets" : 2,
									"outlettype" : [ "", "" ],
									"patching_rect" : [ 4.0, 41.0, 71.0, 22.0 ],
									"text" : "route inputs"
								}

							}
, 							{
								"box" : 								{
									"color" : [ 1.0, 0.0, 0.0, 1.0 ],
									"id" : "obj-116",
									"maxclass" : "newobj",
									"numinlets" : 0,
									"numoutlets" : 1,
									"outlettype" : [ "" ],
									"patching_rect" : [ 4.0, 3.0, 64.0, 22.0 ],
									"text" : "r #0-io_list"
								}

							}
, 							{
								"box" : 								{
									"comment" : "",
									"id" : "obj-139",
									"index" : 1,
									"maxclass" : "outlet",
									"numinlets" : 1,
									"numoutlets" : 0,
									"patching_rect" : [ 4.0, 156.0, 30.0, 30.0 ]
								}

							}
, 							{
								"box" : 								{
									"comment" : "",
									"id" : "obj-140",
									"index" : 2,
									"maxclass" : "outlet",
									"numinlets" : 1,
									"numoutlets" : 0,
									"patching_rect" : [ 77.0, 156.0, 30.0, 30.0 ]
								}

							}
 ],
						"lines" : [ 							{
								"patchline" : 								{
									"destination" : [ "obj-140", 0 ],
									"midpoints" : [ 146.5, 146.0, 86.5, 146.0 ],
									"source" : [ "obj-1", 1 ]
								}

							}
, 							{
								"patchline" : 								{
									"destination" : [ "obj-8", 0 ],
									"source" : [ "obj-1", 0 ]
								}

							}
, 							{
								"patchline" : 								{
									"destination" : [ "obj-117", 0 ],
									"order" : 1,
									"source" : [ "obj-116", 0 ]
								}

							}
, 							{
								"patchline" : 								{
									"destination" : [ "obj-118", 0 ],
									"midpoints" : [ 13.5, 32.0, 86.5, 32.0 ],
									"order" : 0,
									"source" : [ "obj-116", 0 ]
								}

							}
, 							{
								"patchline" : 								{
									"destination" : [ "obj-4", 0 ],
									"source" : [ "obj-117", 0 ]
								}

							}
, 							{
								"patchline" : 								{
									"destination" : [ "obj-1", 0 ],
									"source" : [ "obj-118", 0 ]
								}

							}
, 							{
								"patchline" : 								{
									"destination" : [ "obj-139", 0 ],
									"midpoints" : [ 65.5, 147.0, 13.5, 147.0 ],
									"source" : [ "obj-4", 1 ]
								}

							}
, 							{
								"patchline" : 								{
									"destination" : [ "obj-5", 0 ],
									"source" : [ "obj-4", 0 ]
								}

							}
, 							{
								"patchline" : 								{
									"destination" : [ "obj-6", 1 ],
									"order" : 0,
									"source" : [ "obj-5", 0 ]
								}

							}
, 							{
								"patchline" : 								{
									"destination" : [ "obj-6", 0 ],
									"order" : 1,
									"source" : [ "obj-5", 0 ]
								}

							}
, 							{
								"patchline" : 								{
									"destination" : [ "obj-139", 0 ],
									"source" : [ "obj-6", 0 ]
								}

							}
, 							{
								"patchline" : 								{
									"destination" : [ "obj-140", 0 ],
									"source" : [ "obj-7", 0 ]
								}

							}
, 							{
								"patchline" : 								{
									"destination" : [ "obj-7", 1 ],
									"order" : 0,
									"source" : [ "obj-8", 0 ]
								}

							}
, 							{
								"patchline" : 								{
									"destination" : [ "obj-7", 0 ],
									"order" : 1,
									"source" : [ "obj-8", 0 ]
								}

							}
 ]
					}
,
					"patching_rect" : [ 2.416764000000285, 56.083157103767235, 101.0, 22.0 ],
					"saved_object_attributes" : 					{
						"description" : "",
						"digest" : "",
						"globalpatchername" : "",
						"tags" : ""
					}
,
					"text" : "p init_io_umenus"
				}

			}
, 			{
				"box" : 				{
					"id" : "obj-123",
					"maxclass" : "newobj",
					"numinlets" : 0,
					"numoutlets" : 1,
					"outlettype" : [ "" ],
					"patcher" : 					{
						"fileversion" : 1,
						"appversion" : 						{
							"major" : 8,
							"minor" : 5,
							"revision" : 6,
							"architecture" : "x64",
							"modernui" : 1
						}
,
						"classnamespace" : "box",
						"rect" : [ 599.0, 167.0, 254.0, 160.0 ],
						"bglocked" : 0,
						"openinpresentation" : 0,
						"default_fontsize" : 12.0,
						"default_fontface" : 0,
						"default_fontname" : "Arial",
						"gridonopen" : 1,
						"gridsize" : [ 15.0, 15.0 ],
						"gridsnaponopen" : 1,
						"objectsnaponopen" : 1,
						"statusbarvisible" : 2,
						"toolbarvisible" : 1,
						"lefttoolbarpinned" : 0,
						"toptoolbarpinned" : 0,
						"righttoolbarpinned" : 0,
						"bottomtoolbarpinned" : 0,
						"toolbars_unpinned_last_save" : 15,
						"tallnewobj" : 0,
						"boxanimatetime" : 200,
						"enablehscroll" : 1,
						"enablevscroll" : 1,
						"devicewidth" : 0.0,
						"description" : "",
						"digest" : "",
						"tags" : "",
						"style" : "",
						"subpatcher_template" : "Default Max 7",
						"assistshowspatchername" : 0,
						"boxes" : [ 							{
								"box" : 								{
									"id" : "obj-4",
									"maxclass" : "newobj",
									"numinlets" : 1,
									"numoutlets" : 1,
									"outlettype" : [ "" ],
									"patching_rect" : [ 3.0, 51.0, 71.0, 22.0 ],
									"text" : "prepend init"
								}

							}
, 							{
								"box" : 								{
									"id" : "obj-5",
									"maxclass" : "newobj",
									"numinlets" : 2,
									"numoutlets" : 2,
									"outlettype" : [ "", "" ],
									"patching_rect" : [ 3.0, 28.0, 95.0, 22.0 ],
									"text" : "route set"
								}

							}
, 							{
								"box" : 								{
									"id" : "obj-3",
									"maxclass" : "newobj",
									"numinlets" : 1,
									"numoutlets" : 1,
									"outlettype" : [ "" ],
									"patching_rect" : [ 106.0, 51.0, 71.0, 22.0 ],
									"text" : "prepend init"
								}

							}
, 							{
								"box" : 								{
									"id" : "obj-1",
									"maxclass" : "newobj",
									"numinlets" : 2,
									"numoutlets" : 2,
									"outlettype" : [ "", "" ],
									"patching_rect" : [ 106.0, 28.0, 93.0, 22.0 ],
									"text" : "route set"
								}

							}
, 							{
								"box" : 								{
									"id" : "obj-115",
									"maxclass" : "newobj",
									"numinlets" : 1,
									"numoutlets" : 1,
									"outlettype" : [ "" ],
									"patching_rect" : [ 3.0, 88.0, 95.0, 22.0 ],
									"text" : "prepend outputs"
								}

							}
, 							{
								"box" : 								{
									"id" : "obj-113",
									"maxclass" : "newobj",
									"numinlets" : 1,
									"numoutlets" : 1,
									"outlettype" : [ "" ],
									"patching_rect" : [ 106.0, 88.0, 88.0, 22.0 ],
									"text" : "prepend inputs"
								}

							}
, 							{
								"box" : 								{
									"id" : "obj-97",
									"maxclass" : "newobj",
									"numinlets" : 2,
									"numoutlets" : 2,
									"outlettype" : [ "", "int" ],
									"patching_rect" : [ 106.0, 4.0, 93.0, 22.0 ],
									"text" : "adstatus input 1"
								}

							}
, 							{
								"box" : 								{
									"id" : "obj-92",
									"maxclass" : "newobj",
									"numinlets" : 2,
									"numoutlets" : 2,
									"outlettype" : [ "", "int" ],
									"patching_rect" : [ 3.0, 4.0, 101.0, 22.0 ],
									"text" : "adstatus output 1"
								}

							}
, 							{
								"box" : 								{
									"comment" : "",
									"id" : "obj-122",
									"index" : 1,
									"maxclass" : "outlet",
									"numinlets" : 1,
									"numoutlets" : 0,
									"patching_rect" : [ 3.0, 125.999991448116475, 30.0, 30.0 ]
								}

							}
 ],
						"lines" : [ 							{
								"patchline" : 								{
									"destination" : [ "obj-113", 0 ],
									"midpoints" : [ 189.5, 79.5, 115.5, 79.5 ],
									"source" : [ "obj-1", 1 ]
								}

							}
, 							{
								"patchline" : 								{
									"destination" : [ "obj-3", 0 ],
									"source" : [ "obj-1", 0 ]
								}

							}
, 							{
								"patchline" : 								{
									"destination" : [ "obj-122", 0 ],
									"midpoints" : [ 115.5, 119.499995724058238, 12.5, 119.499995724058238 ],
									"source" : [ "obj-113", 0 ]
								}

							}
, 							{
								"patchline" : 								{
									"destination" : [ "obj-122", 0 ],
									"source" : [ "obj-115", 0 ]
								}

							}
, 							{
								"patchline" : 								{
									"destination" : [ "obj-113", 0 ],
									"source" : [ "obj-3", 0 ]
								}

							}
, 							{
								"patchline" : 								{
									"destination" : [ "obj-115", 0 ],
									"source" : [ "obj-4", 0 ]
								}

							}
, 							{
								"patchline" : 								{
									"destination" : [ "obj-115", 0 ],
									"midpoints" : [ 88.5, 81.0, 12.5, 81.0 ],
									"source" : [ "obj-5", 1 ]
								}

							}
, 							{
								"patchline" : 								{
									"destination" : [ "obj-4", 0 ],
									"source" : [ "obj-5", 0 ]
								}

							}
, 							{
								"patchline" : 								{
									"destination" : [ "obj-5", 0 ],
									"source" : [ "obj-92", 0 ]
								}

							}
, 							{
								"patchline" : 								{
									"destination" : [ "obj-1", 0 ],
									"source" : [ "obj-97", 0 ]
								}

							}
 ]
					}
,
					"patching_rect" : [ 130.250292000000854, 26.404029724058034, 77.0, 22.0 ],
					"saved_object_attributes" : 					{
						"description" : "",
						"digest" : "",
						"globalpatchername" : "",
						"tags" : ""
					}
,
					"text" : "p init_io_lists"
				}

			}
, 			{
				"box" : 				{
					"color" : [ 0.0, 1.0, 0.0, 1.0 ],
					"id" : "obj-98",
					"maxclass" : "newobj",
					"numinlets" : 1,
					"numoutlets" : 0,
					"patching_rect" : [ 130.250292000000854, 50.404029724058034, 66.0, 22.0 ],
					"text" : "s #0-io_list"
				}

			}
, 			{
				"box" : 				{
					"id" : "obj-8",
					"items" : [ "Off", ",", 1, "In1", ",", 2, "In2", ",", 3, "In3", ",", 4, "In4" ],
					"maxclass" : "umenu",
					"numinlets" : 1,
					"numoutlets" : 3,
					"outlettype" : [ "int", "", "" ],
					"parameter_enable" : 0,
					"patching_rect" : [ 2.416764000000285, 80.083157103767235, 88.0, 22.0 ],
					"presentation" : 1,
					"presentation_rect" : [ 5.500000000000227, 28.79167824472313, 199.666471999999203, 22.0 ],
					"varname" : "NTM_channel_input"
				}

			}
, 			{
				"box" : 				{
					"angle" : 270.0,
					"bgcolor" : [ 0.423529411764706, 0.784313725490196, 1.0, 1.0 ],
					"border" : 2,
					"bordercolor" : [ 0.0, 0.0, 0.0, 1.0 ],
					"id" : "obj-171",
					"maxclass" : "panel",
					"mode" : 0,
					"numinlets" : 1,
					"numoutlets" : 0,
					"patching_rect" : [ 32.916764000000285, 2.404029724058034, 70.5, 30.35825460376725 ],
					"presentation" : 1,
					"presentation_rect" : [ 1.541618000000028, 0.79167824472313, 208.083235999999488, 101.0 ],
					"proportion" : 0.5
				}

			}
 ],
		"lines" : [ 			{
				"patchline" : 				{
					"destination" : [ "obj-67", 0 ],
					"source" : [ "obj-10", 0 ]
				}

			}
, 			{
				"patchline" : 				{
					"destination" : [ "obj-18", 0 ],
					"source" : [ "obj-109", 0 ]
				}

			}
, 			{
				"patchline" : 				{
					"destination" : [ "obj-11", 0 ],
					"midpoints" : [ 71.916764000000285, 205.583157103767235, 103.750292000000854, 205.583157103767235 ],
					"order" : 0,
					"source" : [ "obj-12", 0 ]
				}

			}
, 			{
				"patchline" : 				{
					"destination" : [ "obj-2", 0 ],
					"order" : 1,
					"source" : [ "obj-12", 0 ]
				}

			}
, 			{
				"patchline" : 				{
					"destination" : [ "obj-98", 0 ],
					"source" : [ "obj-123", 0 ]
				}

			}
, 			{
				"patchline" : 				{
					"destination" : [ "obj-8", 0 ],
					"source" : [ "obj-141", 0 ]
				}

			}
, 			{
				"patchline" : 				{
					"destination" : [ "obj-12", 0 ],
					"midpoints" : [ 11.916764000000285, 150.083157103767235, 71.916764000000285, 150.083157103767235 ],
					"order" : 0,
					"source" : [ "obj-29", 0 ]
				}

			}
, 			{
				"patchline" : 				{
					"destination" : [ "obj-6", 0 ],
					"order" : 1,
					"source" : [ "obj-29", 0 ]
				}

			}
, 			{
				"patchline" : 				{
					"destination" : [ "obj-40", 0 ],
					"source" : [ "obj-34", 0 ]
				}

			}
, 			{
				"patchline" : 				{
					"destination" : [ "obj-1", 0 ],
					"midpoints" : [ 11.916764000000285, 109.083157103767235, 211.916764000000285, 109.083157103767235 ],
					"order" : 0,
					"source" : [ "obj-8", 0 ]
				}

			}
, 			{
				"patchline" : 				{
					"destination" : [ "obj-29", 0 ],
					"order" : 1,
					"source" : [ "obj-8", 0 ]
				}

			}
 ],
		"dependency_cache" : [ 			{
				"name" : "brickwall-crossover~.maxpat",
				"bootpath" : "~/Desktop/Repos/Netronome/Netronome/MaxPatch",
				"patcherrelativepath" : ".",
				"type" : "JSON",
				"implicit" : 1
			}
 ],
		"autosave" : 0
	}

}
